<svg id="Шар_2" data-name="Шар 2" xmlns="http://www.w3.org/2000/svg" width="14" height="14" viewBox="0 0 14 14"><defs><style>.cls-1{fill:#1e9f6e;}</style></defs><path class="cls-1" d="M12.94,7a2.58,2.58,0,0,0-1-2A2.58,2.58,0,0,0,9.11,2.1,2.59,2.59,0,0,0,7,1.06a2.56,2.56,0,0,0-2,1A2.57,2.57,0,0,0,2.06,4.93a2.53,2.53,0,0,0-1,2A2.58,2.58,0,0,0,2,9,2.58,2.58,0,0,0,4.89,11.9a2.59,2.59,0,0,0,2.07,1,2.56,2.56,0,0,0,2.05-1,2.57,2.57,0,0,0,2.93-2.85A2.53,2.53,0,0,0,12.94,7ZM9.88,6,6.78,9.09a.78.78,0,0,1-.55.22h0a.75.75,0,0,1-.55-.23L4.12,7.46A.77.77,0,1,1,5.23,6.39l1,1.05L8.78,4.91A.78.78,0,0,1,9.88,6Z"/></svg>