<svg width="14" height="14" viewBox="0 0 14 14" fill="none" xmlns="http://www.w3.org/2000/svg">
<g id="bell">
<path id="Vector" d="M3.29995 8.3173L3.1535 8.46375L2.65866 8.95859C2.63069 8.98656 2.61165 9.0222 2.60394 9.06099C2.59623 9.09978 2.60019 9.13999 2.61532 9.17652C2.63045 9.21307 2.65608 9.2443 2.68896 9.26627L2.42462 9.66178L2.68896 9.26628C2.72182 9.28823 2.76043 9.29996 2.79995 9.29999L3.29995 8.3173ZM3.29995 8.3173V8.11019M3.29995 8.3173V8.11019M3.29995 8.11019V5.59999C3.29995 4.61869 3.68977 3.67758 4.38365 2.9837C5.07754 2.28981 6.01865 1.89999 6.99995 1.89999C7.98125 1.89999 8.92236 2.28981 9.61624 2.9837C10.3101 3.67758 10.6999 4.61869 10.6999 5.59999V8.11019V8.3173M3.29995 8.11019L10.6999 8.3173M10.6999 8.3173L10.8464 8.46375M10.6999 8.3173L10.8464 8.46375M10.8464 8.46375L11.3412 8.9586C11.3692 8.98656 11.3882 9.0222 11.396 9.06099C11.4037 9.09978 11.3997 9.13999 11.3846 9.17652C11.3694 9.21307 11.3438 9.2443 11.3109 9.26627L11.5812 9.67072M10.8464 8.46375L11.5812 9.67072M11.5812 9.67072L11.3109 9.26628M11.5812 9.67072L11.3109 9.26628M11.3109 9.26628C11.2781 9.28823 11.2395 9.29996 11.1999 9.29999M11.3109 9.26628L11.1999 9.29999M11.1999 9.29999C11.1999 9.29999 11.1999 9.29999 11.1998 9.29999M11.1999 9.29999H11.1998M11.1998 9.29999H2.80006H11.1998ZM6.99995 12.1C6.5756 12.1 6.16864 11.9314 5.86858 11.6314C5.68977 11.4526 5.55765 11.2358 5.48008 11H8.51982C8.44224 11.2358 8.31013 11.4526 8.13132 11.6314C7.83126 11.9314 7.42429 12.1 6.99995 12.1Z" fill="#E02424" stroke="#E02424"/>
</g>
</svg>
