<svg width="87" height="33" viewBox="0 0 87 33" fill="none" xmlns="http://www.w3.org/2000/svg">
<g id="Copart_logo 1">
<g id="layer1">
<g id="g310">
<path id="Fill-1" fill-rule="evenodd" clip-rule="evenodd" d="M85.135 16.4917C80.8696 25.0404 62.0044 32 43.141 32C24.2586 32 12.3505 25.0404 16.6154 16.4917C20.8634 7.97638 39.7449 1 58.6103 1C77.4919 1 89.3981 7.97638 85.135 16.4917Z" fill="#032B76"/>
<path id="Fill-3" fill-rule="evenodd" clip-rule="evenodd" d="M58.1859 1.33026C76.5321 1.33026 88.0788 8.09174 83.9058 16.3589C79.7501 24.6433 61.3873 31.4054 43.0775 31.4054C24.7321 31.4054 13.1844 24.6433 17.3397 16.3589C20.0371 11.0291 28.5805 6.35174 39.2111 3.66875C39.9659 3.46848 40.7398 3.30596 41.5131 3.12399C46.8005 1.98305 52.5025 1.33026 58.1859 1.33026Z" fill="#0A0A08"/>
<path id="Fill-4" fill-rule="evenodd" clip-rule="evenodd" d="M57.8634 1.95734C75.9782 1.95734 87.4031 8.48292 83.3117 16.4489C79.2199 24.4457 61.1209 30.957 43.0229 30.957C24.9075 30.957 13.4828 24.4457 17.575 16.4489C21.6504 8.48292 39.7648 1.95734 57.8634 1.95734Z" fill="#969998"/>
<path id="Fill-6" fill-rule="evenodd" clip-rule="evenodd" d="M55.0226 3.1413C71.3885 3.1413 81.6892 8.97811 77.9666 16.1149C74.2594 23.2667 57.8782 29.104 41.5447 29.104C25.1793 29.104 14.878 23.2667 18.5848 16.1149C20.9912 11.514 28.6123 7.47585 38.0956 5.16008C38.769 4.98712 39.4594 4.84685 40.1491 4.69008C44.866 3.70476 49.9524 3.1413 55.0226 3.1413Z" fill="#0A0A08"/>
<path id="Fill-7" fill-rule="evenodd" clip-rule="evenodd" d="M75.2815 10.261C76.0669 11.5332 76.212 12.9652 75.5903 14.4664C75.0079 15.6027 74.34 16.5176 73.3446 17.4176C68.1812 22.0707 56.5622 25.5413 44.9587 25.5413C31.2772 25.5413 22.6496 20.7189 25.7666 14.8068C27.9082 10.737 35.1657 7.03706 43.8569 5.20868C44.8793 4.99404 45.9182 4.82512 46.9728 4.67126C44.9281 4.87134 42.9274 5.16268 40.9603 5.57707C31.3246 7.65079 23.1537 10.9989 20.7755 15.6362C17.3281 22.378 26.8842 27.8753 42.0623 27.8753C54.4984 27.8753 66.9528 24.1902 72.9354 19.1372C73.6109 18.5701 74.4016 17.7688 75.0221 16.9152C75.2784 16.5697 75.5029 16.2201 75.6904 15.8671C76.7612 13.8396 76.5567 11.9199 75.2815 10.261Z" fill="#0D5DB8"/>
<path id="Fill-9" fill-rule="evenodd" clip-rule="evenodd" d="M10.4851 15.0531C10.1951 15.4977 9.90406 15.826 9.62016 16.0292L9.60891 16.0381C9.28119 16.2894 8.85199 16.4171 8.33316 16.4171C7.99616 16.4171 7.76477 16.3515 7.70022 16.2399C7.69351 16.2242 7.54149 15.8145 8.01077 14.34C8.32112 13.4061 8.6828 12.7389 9.08574 12.3568C9.58601 11.8685 10.1228 11.641 10.7751 11.641C10.98 11.641 11.1502 11.672 11.2538 11.7278C11.3314 11.7706 11.3928 11.8042 11.4171 12.0792L11.5119 13.1556H16.7136C16.387 13.5776 16.1077 14.0324 15.8834 14.5086H10.8404L10.4851 15.0531ZM23.0945 15.366C22.9004 15.9686 22.6503 16.4062 22.3714 16.6307C22.0861 16.8534 21.8464 16.9529 21.5939 16.9529C21.5416 16.9529 21.5082 16.9484 21.4887 16.9439C21.4776 16.8774 21.461 16.6412 21.6346 16.1015C21.8002 15.5517 22.0438 15.1344 22.3382 14.8947C22.6079 14.6843 22.8576 14.5905 23.1476 14.5905C23.1828 14.5905 23.208 14.5923 23.2256 14.5949C23.2362 14.6695 23.2431 14.8915 23.0945 15.366ZM35.516 15.3548C35.3563 15.887 35.1417 16.2837 34.9117 16.472C34.7241 16.6262 34.5656 16.701 34.4272 16.701C34.4132 16.701 34.4006 16.7006 34.3891 16.7002C34.3921 16.6075 34.4138 16.4212 34.5127 16.1102C34.7273 15.4283 34.9695 15.1358 35.1354 15.0101C35.3249 14.8593 35.4878 14.7804 35.6589 14.7571C35.6488 14.8698 35.6157 15.0572 35.5199 15.3426L35.516 15.3548ZM72.0662 10.0603L73.4456 5.74762L66.3555 8.61601L66.1743 8.68951L65.7366 10.0602H64.3309L64.2733 10.2399C63.6802 9.98105 63.095 9.85513 62.4852 9.85513C62.007 9.85513 61.553 9.92412 61.1354 10.0601H55.5823L54.5314 13.3341C54.5328 13.2003 54.5291 13.0633 54.5197 12.9247C54.4697 12.2139 54.2137 11.5843 53.7991 11.1529C53.2826 10.5774 52.5541 10.2063 51.6341 10.0495C50.9522 9.91688 50.0273 9.85507 48.7229 9.85507C47.9599 9.85507 47.2393 9.90548 46.5199 10.0097C45.7065 10.1322 45.1099 10.2929 44.643 10.5149C43.9506 10.808 43.3765 11.1643 42.9378 11.5735C42.5511 11.9174 42.1977 12.3554 41.8583 12.9108C41.7888 12.5628 41.6822 12.228 41.5409 11.9139C41.0911 10.9746 40.0786 9.855 37.8076 9.855C37.2467 9.855 36.7172 9.92379 36.1911 10.0654L36.1929 10.0609H30.1276L29.2546 12.7814C29.1533 12.4999 29.0201 12.2267 28.858 11.9681C27.9443 10.5664 26.2569 9.85582 23.8428 9.85582C21.8627 9.85582 20.1003 10.3732 18.6048 11.394C18.3292 11.5831 18.0652 11.7859 17.8198 11.9969V11.979C17.8198 9.9723 17.2611 8.55269 16.1123 7.63937C15.1112 6.80596 13.6352 6.40079 11.6 6.40079C9.1719 6.40079 7.03459 7.03896 5.24712 8.29814C3.46952 9.56117 2.20502 11.3607 1.48916 13.646C0.909723 15.4307 0.844771 16.9625 1.29588 18.1997C1.77918 19.4918 2.57894 20.4127 3.67266 20.9357C4.65564 21.4152 5.99515 21.658 7.65391 21.658C9.0337 21.658 10.2409 21.4691 11.2415 21.0961C12.2513 20.7385 13.2076 20.1799 14.0844 19.4354C14.4844 19.0846 14.9242 18.6199 15.3268 18.1233C15.541 19.0946 16.0632 19.7813 16.4673 20.1887C17.4556 21.1531 18.9248 21.6422 20.8345 21.6422C22.8411 21.6422 24.6246 21.1198 26.1351 20.0888C26.5096 19.8331 26.8599 19.5521 27.1775 19.2525L25.3776 24.8607H31.7222L32.872 21.3C33.4254 21.5273 34.0625 21.6422 34.7665 21.6422C36.2438 21.6422 37.6261 21.1601 38.875 20.2086C39.2318 19.9355 39.5674 19.6209 39.8736 19.2729C39.9864 19.7214 40.211 20.1298 40.5413 20.4874C41.2388 21.2644 42.3335 21.6422 43.8878 21.6422C44.913 21.6422 45.8741 21.4925 46.7445 21.1972C46.8875 21.1479 47.0338 21.0914 47.1799 21.0294L47.3192 21.4364H58.2612L59.4967 17.5838C60.0112 15.9892 60.4825 15.3522 60.7164 15.1156C60.9427 14.9184 61.0941 14.8912 61.224 14.8912C61.2387 14.8912 61.3793 14.8957 61.7219 15.0429L62.5751 15.4107L62.9807 14.9341L64.1735 14.9364L63.6497 16.5689C63.2405 17.7847 63.1025 18.6519 63.2156 19.2973C63.3338 20.0868 63.7701 20.7404 64.4442 21.1371C65.0196 21.4812 65.8518 21.6414 67.0626 21.6414C67.9463 21.6414 68.9324 21.5388 69.9943 21.3362L70.51 21.2378L70.7844 21.185L71.8465 16.1034L69.9459 16.6473L70.4902 14.9374H72.5742L74.1361 10.0594L72.0662 10.0603Z" fill="white"/>
<path id="Fill-11" fill-rule="evenodd" clip-rule="evenodd" d="M11.0166 14.8206L10.7556 15.221C10.4441 15.6983 10.126 16.0554 9.80697 16.2836C9.4216 16.5791 8.92547 16.7294 8.33301 16.7294C7.85662 16.7294 7.54904 16.6151 7.41874 16.3891C7.3757 16.316 7.18755 15.8695 7.70382 14.2478C8.03154 13.2616 8.42106 12.5498 8.86269 12.1311C9.41647 11.5904 10.0421 11.3275 10.7749 11.3275C11.0409 11.3275 11.2543 11.3699 11.4085 11.453C11.5917 11.5538 11.704 11.6839 11.7366 12.0519L11.8061 12.8421H17.3953C16.8437 13.4364 16.4076 14.0978 16.0919 14.8207L11.0166 14.8206ZM23.4014 15.4567C23.1848 16.1287 22.9068 16.6051 22.5763 16.8712C22.2318 17.1402 21.9197 17.2658 21.5937 17.2658C21.3043 17.2658 21.2451 17.167 21.2054 17.1007C21.19 17.0758 21.0631 16.8336 21.3284 16.0069C21.5136 15.3934 21.7843 14.9383 22.1313 14.6557C22.4616 14.3978 22.7844 14.2777 23.1475 14.2777C23.4144 14.2777 23.4608 14.355 23.5115 14.439C23.5173 14.448 23.6493 14.666 23.4014 15.4567ZM34.2059 16.0164C34.3953 15.4156 34.6484 14.982 34.9398 14.7611C35.2183 14.5393 35.4817 14.4357 35.7689 14.4357C35.9162 14.4357 35.9261 14.4536 35.9601 14.5134C35.9893 14.5621 36.0268 14.8362 35.8238 15.4416C35.6438 16.0411 35.3998 16.4801 35.1178 16.7108C34.8703 16.9143 34.6442 17.0129 34.4271 17.0129C34.1647 17.0129 34.1208 16.9414 34.092 16.8946C34.0911 16.8925 33.9909 16.6942 34.2059 16.0164ZM41.3442 15.863C41.4731 15.4168 41.5604 14.9818 41.6046 14.5657L43.2882 14.7321C42.676 14.9349 42.1781 15.1852 41.7754 15.4918C41.623 15.607 41.479 15.7313 41.3442 15.863ZM72.3385 14.6244L73.6997 10.3722H71.6299L72.9349 6.29199L66.4355 8.92149L65.9728 10.3722H64.5665L64.4674 10.6807C63.8056 10.3353 63.1559 10.1672 62.4851 10.1672C62.0219 10.1672 61.5866 10.2362 61.1886 10.3722H55.8179L52.6338 20.293L52.6042 20.1178C52.5332 19.6988 52.5261 19.4902 52.5324 19.3901C52.5399 19.285 52.5792 19.0608 52.7213 18.5923L53.9953 14.6153C54.1731 14.0917 54.2399 13.5453 54.1994 12.9443C54.1544 12.3027 53.9273 11.7401 53.5625 11.3633C53.0952 10.8403 52.4275 10.5016 51.5806 10.3573C50.9133 10.2276 50.0053 10.1671 48.7229 10.1671C47.9756 10.1671 47.2704 10.2164 46.5668 10.3186C45.7834 10.4364 45.2139 10.5892 44.7791 10.7975C44.1178 11.0765 43.5727 11.4135 43.1607 11.7977C42.7218 12.1884 42.3238 12.7114 41.9437 13.3967L41.6366 13.9505C41.6371 13.2562 41.5067 12.6147 41.2462 12.0374C40.8378 11.1841 39.9095 10.167 37.8075 10.167C37.0749 10.167 36.3825 10.2936 35.7002 10.5527L35.7575 10.3722H30.3633L29.1789 14.0623C29.1487 13.36 28.9495 12.712 28.5835 12.1287C27.735 10.827 26.14 10.1671 23.8428 10.1671C21.9297 10.1671 20.2293 10.6654 18.7885 11.6488C18.3078 11.9789 17.8776 12.3405 17.499 12.7326V11.978C17.499 10.0712 16.9787 8.73093 15.9109 7.88153C14.9658 7.09493 13.5556 6.71269 11.5999 6.71269C9.24073 6.71269 7.1664 7.331 5.4346 8.5507C3.71524 9.77268 2.49102 11.5175 1.79609 13.7358C1.23758 15.456 1.17085 16.9224 1.59827 18.0944C2.05155 19.3061 2.79703 20.1673 3.81316 20.6535C4.7533 21.1116 6.04543 21.3441 7.65384 21.3441C8.99415 21.3441 10.1629 21.1619 11.1261 20.8033C12.1028 20.4571 13.0271 19.9171 13.8747 19.1977C14.4377 18.7038 15.0598 17.9975 15.5488 17.3025C15.5853 18.5763 16.1812 19.4494 16.6986 19.9711C17.6216 20.8715 19.0132 21.3283 20.8344 21.3283C22.7741 21.3283 24.4956 20.8247 25.9512 19.8312C26.764 19.2761 27.4375 18.615 27.9606 17.859L25.814 24.5467H31.4868L32.6753 20.8669C32.7468 20.9025 32.8198 20.9358 32.8927 20.9661C33.4296 21.2066 34.06 21.3283 34.7664 21.3283C36.1705 21.3283 37.4863 20.8685 38.6778 19.9609C39.2175 19.5475 39.6996 19.0413 40.115 18.4524C40.0733 19.3076 40.4386 19.908 40.7789 20.2763C41.4144 20.9842 42.4314 21.3283 43.8878 21.3283C44.8769 21.3283 45.8026 21.1845 46.6395 20.9007C46.8764 20.8189 47.1216 20.7172 47.3701 20.5974L47.5502 21.1227H58.0254L59.1902 17.49C59.7026 15.9029 60.1833 15.1981 60.4925 14.8904C60.7373 14.674 60.9631 14.5774 61.2239 14.5774C61.2879 14.5774 61.4774 14.5953 61.8515 14.7558L62.4831 15.0283L62.8303 14.6202L64.6097 14.6248L63.9562 16.6619C63.5616 17.8344 63.4272 18.6566 63.5322 19.2476C63.6354 19.9453 64.018 20.5214 64.6093 20.8698C65.1339 21.1833 65.9135 21.329 67.0625 21.329C67.9251 21.329 68.8906 21.2284 69.9325 21.0295L70.5127 20.9189L71.4258 16.5504L70.0146 16.9544C69.8126 17.0119 69.6296 17.0586 69.4685 17.0924L70.2539 14.6251L72.3385 14.6244Z" fill="#0A0A08"/>
<path id="Fill-12" fill-rule="evenodd" clip-rule="evenodd" d="M15.4812 15.6849C15.0449 16.6625 14.0903 17.8456 13.2821 18.5552C12.5376 19.187 11.7127 19.6757 10.8235 19.9912C9.93415 20.322 8.86727 20.4801 7.65391 20.4801C6.16573 20.4801 5.01811 20.2748 4.20946 19.8804C3.38482 19.486 2.80223 18.7918 2.43087 17.7982C2.07393 16.8204 2.13908 15.5426 2.64073 13.9967C3.28789 11.9314 4.40353 10.3526 5.95626 9.24939C7.5244 8.14523 9.40052 7.57678 11.6 7.57678C13.3138 7.57678 14.5592 7.89256 15.3357 8.5392C16.3867 9.37473 16.6132 10.7476 16.6132 11.978H12.6193C12.5705 11.4259 12.3601 10.984 11.843 10.7001C11.551 10.5422 11.1957 10.4633 10.775 10.4633C9.82083 10.4633 8.96362 10.8101 8.23591 11.5203C7.68648 12.0412 7.2332 12.8613 6.86106 13.9809C6.42455 15.3531 6.3442 16.3003 6.651 16.8204C6.9424 17.3259 7.50861 17.5933 8.33305 17.5933C9.14189 17.5933 9.82083 17.3722 10.3549 16.9627C10.775 16.6625 11.1631 16.2058 11.5031 15.6849H15.4812Z" fill="white"/>
<path id="Fill-13" fill-rule="evenodd" clip-rule="evenodd" d="M24.2467 15.7163C23.9721 16.5684 23.5999 17.1678 23.1305 17.5456C22.6454 17.9248 22.1445 18.1299 21.5939 18.1299C21.0609 18.1299 20.6725 17.9249 20.4463 17.5456C20.2034 17.1522 20.2198 16.5684 20.4787 15.7627C20.7211 14.9589 21.0928 14.3755 21.5777 13.9809C22.063 13.6018 22.581 13.4136 23.1476 13.4136C23.6641 13.4136 24.036 13.6018 24.2631 13.9809C24.5055 14.3595 24.4889 14.9437 24.2467 15.7163ZM27.8362 12.5927C27.1575 11.5515 25.8316 11.0312 23.843 11.0312C22.1115 11.0312 20.5912 11.4735 19.2985 12.356C17.988 13.2553 17.1142 14.3912 16.6781 15.7627C16.193 17.2462 16.4192 18.4455 17.3254 19.3602C18.0687 20.0856 19.2329 20.4643 20.8346 20.4643C22.6124 20.4643 24.1495 20.0066 25.4433 19.1235C26.7368 18.2402 27.5944 17.1043 28.0467 15.7163C28.451 14.486 28.3705 13.4448 27.8362 12.5927Z" fill="white"/>
<path id="Fill-14" fill-rule="evenodd" clip-rule="evenodd" d="M36.6742 15.6849C36.4324 16.4893 36.0928 17.0411 35.6883 17.3723C35.2842 17.7039 34.864 17.8774 34.4272 17.8774C33.9257 17.8774 33.5536 17.704 33.3433 17.3562C33.117 17.01 33.1338 16.4736 33.3594 15.7627C33.6024 14.9911 33.942 14.4227 34.3793 14.092C34.8152 13.7447 35.2677 13.5715 35.7691 13.5715C36.206 13.5715 36.5298 13.7292 36.7241 14.0756C36.9331 14.4226 36.9181 14.959 36.6742 15.6849ZM40.4436 12.4032C40.0059 11.4891 39.1331 11.0312 37.8076 11.0312C37.1441 11.0312 36.4971 11.1571 35.8506 11.426C35.3813 11.6148 34.8151 11.9931 34.1363 12.5612L34.5563 11.2363H31.0145L27.02 23.6828H30.8372L32.2282 19.3758C32.4865 19.7388 32.8424 20.0066 33.2627 20.1805C33.6833 20.3689 34.1845 20.4643 34.7665 20.4643C35.9631 20.4643 37.0959 20.0694 38.1306 19.2814C39.1817 18.4767 39.9418 17.341 40.4267 15.8421C40.8639 14.47 40.8639 13.3343 40.4436 12.4032Z" fill="white"/>
<path id="Fill-15" fill-rule="evenodd" clip-rule="evenodd" d="M48.7562 16.521C48.6099 16.9469 48.431 17.3093 48.1888 17.5778C47.9463 17.8456 47.6228 18.0664 47.2028 18.256C46.7821 18.4456 46.3626 18.5401 45.9247 18.5401C45.5214 18.5401 45.2456 18.4455 45.1011 18.2716C44.939 18.0984 44.9058 17.8774 45.0031 17.6096C45.0687 17.3723 45.2456 17.1678 45.5214 16.9781C45.7796 16.7888 46.3288 16.6154 47.1543 16.4257C47.7691 16.2839 48.3505 16.1418 48.9323 15.9685L48.7562 16.521ZM53.3157 13.0033C53.2837 12.5461 53.138 12.1831 52.8942 11.9315C52.5558 11.5515 52.0537 11.3151 51.4074 11.2051C50.7612 11.079 49.8542 11.0312 48.7232 11.0312C48.0111 11.0312 47.3487 11.079 46.7016 11.1731C46.0704 11.2674 45.5364 11.3945 45.1492 11.5836C44.5828 11.8201 44.1147 12.1039 43.7588 12.4355C43.387 12.7665 43.0473 13.2235 42.7235 13.808L46.2311 14.1545C46.5077 13.7604 46.7821 13.4923 47.0737 13.35C47.4459 13.1764 47.9309 13.082 48.5613 13.082C49.046 13.082 49.3538 13.1606 49.4987 13.3342C49.6294 13.5076 49.6294 13.808 49.4987 14.2337C48.9662 14.3912 48.4796 14.5331 48.0277 14.6438C47.5588 14.7379 46.5879 14.9282 45.0845 15.1953C43.8229 15.4003 42.901 15.7312 42.3194 16.1739C41.7376 16.6153 41.3328 17.1837 41.1224 17.8617C40.8802 18.6033 40.9939 19.2176 41.4458 19.7069C41.8993 20.212 42.7073 20.4643 43.8881 20.4643C44.7763 20.4643 45.6011 20.3375 46.3446 20.0855C46.8953 19.8959 47.4944 19.581 48.124 19.155C48.0917 19.4071 48.0762 19.5962 48.0762 19.7227C48.0762 19.8495 48.1074 20.0212 48.1888 20.2586H51.7301C51.6662 19.8804 51.6334 19.5652 51.6492 19.3291C51.6662 19.0918 51.7471 18.7602 51.8758 18.3349L53.155 14.344C53.2991 13.9178 53.3477 13.4766 53.3157 13.0033Z" fill="white"/>
<path id="Fill-16" fill-rule="evenodd" clip-rule="evenodd" d="M56.469 11.2363H60.0106L59.5417 12.7029C60.092 12.0723 60.593 11.6308 61.0301 11.3944C61.4662 11.1417 61.9509 11.0312 62.4853 11.0312C63.0515 11.0312 63.6006 11.1892 64.1662 11.5045L62.2097 13.9655C61.806 13.7912 61.4828 13.7135 61.2242 13.7135C60.7229 13.7135 60.2852 13.9016 59.8807 14.2655C59.3321 14.8016 58.8135 15.7804 58.3458 17.2302L57.3744 20.2587H53.5732L56.469 11.2363Z" fill="white"/>
<path id="Fill-17" fill-rule="evenodd" clip-rule="evenodd" d="M71.5255 7.79785L70.426 11.2363H72.4956L71.6874 13.7604H69.6016L68.5821 16.9627C68.4522 17.3409 68.4202 17.5933 68.4522 17.7195C68.517 17.9092 68.6952 18.0197 69.0174 18.0197C69.2936 18.0197 69.7132 17.9406 70.2642 17.7824L69.7629 20.1804C68.7766 20.3688 67.8704 20.4643 67.0629 20.4643C66.109 20.4643 65.4447 20.3545 65.0729 20.1323C64.7004 19.9125 64.4749 19.5652 64.4098 19.1234C64.3282 18.6667 64.4588 17.9405 64.7983 16.9307L65.8156 13.7604H64.4098L65.2182 11.2363H66.6248L67.1589 9.56461L71.5255 7.79785Z" fill="white"/>
</g>
</g>
</g>
</svg>
