<svg width="12" height="12" viewBox="0 0 12 12" fill="none" xmlns="http://www.w3.org/2000/svg">
<g id="x">
<path id="Vector" fill-rule="evenodd" clip-rule="evenodd" d="M2.57582 2.57581C2.68834 2.46333 2.84092 2.40014 3.00002 2.40014C3.15912 2.40014 3.3117 2.46333 3.42422 2.57581L6.00002 5.15161L8.57582 2.57581C8.63117 2.51851 8.69737 2.4728 8.77058 2.44135C8.84378 2.40991 8.92251 2.39335 9.00218 2.39266C9.08184 2.39197 9.16085 2.40715 9.23459 2.43732C9.30833 2.46749 9.37532 2.51204 9.43165 2.56837C9.48799 2.62471 9.53254 2.6917 9.56271 2.76544C9.59288 2.83918 9.60806 2.91819 9.60737 2.99785C9.60668 3.07752 9.59012 3.15625 9.55868 3.22945C9.52723 3.30266 9.48152 3.36886 9.42422 3.42421L6.84842 6.00001L9.42422 8.57581C9.53351 8.68897 9.59399 8.84053 9.59262 8.99785C9.59126 9.15517 9.52815 9.30566 9.41691 9.4169C9.30566 9.52815 9.15518 9.59125 8.99786 9.59262C8.84054 9.59398 8.68898 9.53351 8.57582 9.42421L6.00002 6.84841L3.42422 9.42421C3.31106 9.53351 3.1595 9.59398 3.00218 9.59262C2.84486 9.59125 2.69437 9.52815 2.58313 9.4169C2.47188 9.30566 2.40878 9.15517 2.40741 8.99785C2.40605 8.84053 2.46652 8.68897 2.57582 8.57581L5.15162 6.00001L2.57582 3.42421C2.46334 3.3117 2.40015 3.15911 2.40015 3.00001C2.40015 2.84091 2.46334 2.68833 2.57582 2.57581Z" fill="#6B7280"/>
</g>
</svg>
