<svg width="30" height="25" viewBox="0 0 30 25" fill="none" xmlns="http://www.w3.org/2000/svg">
<rect width="30" height="25" fill="#373737"/>
<g id="Catalog / Mobile">
<rect width="375" height="3502" transform="translate(-12 -16)" fill="white"/>
<g id="Navbar">
<g id="Top level">
<rect width="375" height="57" transform="translate(-12 -16)" fill="white"/>
<g id="Logo">
<path id="Vector" d="M18.4077 0.859514C20.2353 1.33993 21.2901 2.4574 22.3867 5.08921C23.1909 7.03174 23.5355 7.84635 25.2483 11.9298C27.3579 16.9533 28.2665 19.1569 28.5067 19.7626C28.6216 20.0446 28.8201 20.5459 28.9558 20.8592C29.7913 22.7913 30.1569 23.9715 29.9375 24.0028C29.8853 24.0132 29.6556 24.0237 29.4362 24.0341C29.2065 24.0341 28.9872 24.0759 28.9454 24.1281C28.9036 24.1699 27.4937 24.2012 25.8018 24.2012C23.4207 24.2012 22.6583 24.1699 22.3867 24.055C22.0003 23.8984 21.593 23.397 21.3841 22.8435C21.311 22.6451 21.1021 22.1229 20.9142 21.6947C20.7262 21.2665 20.3815 20.4624 20.1518 19.9193C19.922 19.3762 19.1492 17.5381 18.4285 15.8462C17.0082 12.4938 15.003 7.75236 14.533 6.62444C14.3659 6.23802 14.1884 5.90383 14.1362 5.89338C14.0944 5.88294 13.7811 6.55133 13.4364 7.38683C13.1022 8.22233 12.0265 10.8019 11.0553 13.1309L9.29028 17.3606L11.9743 17.4128C13.7184 17.4441 14.721 17.5068 14.8568 17.5903C15.2641 17.8201 15.5252 18.2065 15.9534 19.2404C16.204 19.8148 16.6949 20.9845 17.0604 21.8514C17.4259 22.7078 17.7288 23.5433 17.7288 23.6999C17.7288 24.337 17.9377 24.3161 10.2511 24.2848C3.4209 24.2534 3.2538 24.243 2.6794 24.0237C1.07106 23.4179 0.152014 22.2796 0.0162452 20.7339C-0.0673046 19.794 0.162457 18.8749 0.914406 17.0995C1.26949 16.264 1.73946 15.1569 1.95878 14.6452C2.8465 12.5356 5.06057 7.32417 5.79163 5.6114C6.21982 4.6088 6.73156 3.49133 6.94044 3.1258C7.37908 2.33208 8.0788 1.63235 8.27724 1.53835C8.27724 1.53835 8.64277 1.12061 9.42605 0.963951L10.1049 0.859514C10.1049 0.859514 11.7654 0.702858 14.1048 0.702858C17.0813 0.702858 17.9064 0.73419 18.4077 0.859514Z" fill="url(#paint0_linear_1_6618)"/>
</g>
</g>
</g>
</g>
<defs>
<linearGradient id="paint0_linear_1_6618" x1="-5.19515" y1="34.0705" x2="42.1149" y2="-11.3597" gradientUnits="userSpaceOnUse">
<stop stop-color="#0B7FFA" stop-opacity="0.4047"/>
<stop offset="0.466217" stop-color="#1C64F2"/>
<stop offset="1" stop-color="#0092FF" stop-opacity="0"/>
</linearGradient>
</defs>
</svg>
