<svg width="128" height="47" viewBox="0 0 128 47" fill="none" xmlns="http://www.w3.org/2000/svg">
<g id="Adesa Logo" clip-path="url(#clip0_764_2352)">
<g id="Group">
<g id="Group_2">
<g id="Group_3">
<path id="Vector" d="M0.632324 9.64209C0.632324 9.64209 2.41506 17.4864 32.5054 28.5994L42.7156 46.9961C42.7156 46.9961 39.3628 47.174 36.878 45.0728L38.7181 44.8013C38.7181 44.8013 33.694 44.3346 32.6137 41.4865L37.9619 42.3735C37.9619 42.3735 26.7517 38.3348 20.6713 35.136C20.4382 35.0132 27.9137 33.919 27.9137 33.919C27.9137 33.919 18.2808 33.9366 18.2438 33.9223C16.0459 33.0653 7.16914 25.5642 7.16914 25.5642C7.16914 25.5642 14.4524 27.7354 22.5655 28.6924C24.9424 28.9728 7.78921 25.2905 4.76504 22.3424C3.60366 21.21 0.902328 18.8404 0.632324 9.64209Z" fill="#058389"/>
</g>
<path id="Vector_2" d="M30.9188 41.3056C30.9188 41.3056 20.4856 38.6091 19.2905 37.856C19.2905 37.856 21.3773 40.5525 22.6939 40.6402C24.0106 40.7279 26.6646 40.833 26.6646 40.833C26.6646 40.833 25.6718 41.3232 24.2336 41.5684C24.2336 41.5684 26.6646 43.1793 27.6979 43.1793L29.845 42.3035C29.845 42.3035 29.3993 43.6869 29.3183 43.7743C29.2372 43.8617 30.9389 44.4397 30.9389 44.4397L30.9188 41.3056Z" fill="#058389"/>
<path id="Vector_3" d="M38.7385 37.6285L42.0408 43.4594C42.0408 43.4594 47.3284 44.44 50.5898 46.1909C50.5898 46.1909 51.3801 44.58 47.1054 41.9009C42.8307 39.2218 38.7385 37.6285 38.7385 37.6285Z" fill="#058389"/>
<path id="Vector_4" d="M39.7715 36.9982L37.7658 36.105L33.9167 28.138C33.9167 28.138 26.2185 25.4939 22.6731 22.1847C22.6731 22.1847 24.4357 19.243 24.4763 19.0503L27.9607 22.9551C27.9607 22.9551 28.3253 22.6399 25.3877 17.8773C25.3877 17.8773 27.4745 14.3403 27.4745 14.0075C27.4745 14.0075 30.2702 19.6983 32.1949 23.2002C32.1949 23.2002 29.4802 15.8635 29.7029 11.5738C29.7029 11.5738 29.4598 10.2781 36.8543 4.18468C36.8543 4.18468 33.8356 9.63034 34.0787 16.3541C34.0787 16.3541 35.4158 2.71387 45.1803 0C45.1803 0 29.3992 13.5525 39.7715 36.9982Z" fill="#058389"/>
</g>
</g>
<g id="Group_4">
<g id="Group_5">
<path id="Vector_5" d="M62.4879 18.8405H55.0869L45.5791 35.0427H52.6559L53.7363 33.0351H58.5983L59.1386 35.0427H66.2158L62.4879 18.8405ZM55.6273 28.9261L57.8962 24.1634L58.2745 28.9261H55.6273Z" fill="black"/>
</g>
</g>
<g id="Group_6">
<g id="Group_7">
<path id="Vector_6" d="M76.5408 21.2044L69.7813 21.1753L67.2961 34.8561H75.4536C75.4536 34.8561 83.0264 34.5367 83.9349 27.6186C84.7994 21.0349 76.5408 21.2044 76.5408 21.2044ZM78.1546 27.9923C77.9031 30.8569 73.8868 30.7471 73.8868 30.7471L74.9943 25.3541C76.9391 25.4474 78.3167 26.1478 78.1546 27.9923Z" fill="black"/>
</g>
</g>
<path id="Vector_7" d="M86.2579 21.2218H97.0081L96.3061 24.817H91.4168L91.1468 26.1946H88.7968L90.7147 28.3425L90.0934 31.074H95.2526L94.5502 34.8561H83.7458L86.2579 21.2218Z" fill="black"/>
<path id="Vector_8" d="M94.4151 25.1439L93.1726 26.9882H90.4985L92.4975 28.2957L91.3358 30.6537L93.5509 29.3463L95.4416 30.6302L95.0364 28.529L97.3864 26.9649H95.1174L94.4151 25.1439Z" fill="#058389"/>
<g id="Group_8">
<g id="Group_9">
<path id="Vector_9" d="M123.322 21.21H117.083L109.069 34.8676H115.034L115.945 33.1755H120.043L120.498 34.8676H126.464L123.322 21.21ZM117.539 29.7119L119.451 25.6973L119.77 29.7119H117.539Z" fill="black"/>
</g>
</g>
<g id="Group_10">
<path id="Vector_10" d="M126.139 21.0881C126.574 21.0881 126.931 21.2128 127.212 21.4624C127.492 21.712 127.632 22.0062 127.632 22.3455C127.632 22.6912 127.49 22.9873 127.205 23.2336C126.92 23.4798 126.578 23.6028 126.178 23.6028C125.775 23.6028 125.432 23.4801 125.148 23.2344C124.865 22.9887 124.723 22.6923 124.723 22.3455C124.723 22.1015 124.798 21.8773 124.948 21.6734C125.098 21.4694 125.285 21.3207 125.511 21.2277C125.736 21.1346 125.946 21.0881 126.139 21.0881ZM126.211 21.3333C125.854 21.3333 125.565 21.435 125.344 21.6384C125.122 21.842 125.011 22.0774 125.011 22.3452C125.011 22.6228 125.126 22.861 125.355 23.0587C125.584 23.2565 125.86 23.3557 126.181 23.3557C126.502 23.3557 126.776 23.2565 127.005 23.0587C127.234 22.861 127.349 22.6228 127.349 22.3452C127.349 22.1538 127.291 21.9773 127.176 21.8163C127.061 21.6549 126.913 21.5339 126.732 21.4537C126.551 21.3736 126.377 21.3333 126.211 21.3333ZM125.538 23.0164V21.6835H126.269C126.45 21.6835 126.581 21.7199 126.663 21.7927C126.746 21.8656 126.787 21.9549 126.787 22.0611C126.787 22.1639 126.752 22.2466 126.683 22.3091C126.614 22.3715 126.51 22.4135 126.37 22.4354C126.433 22.4561 126.483 22.4841 126.521 22.5197C126.558 22.5553 126.617 22.6318 126.698 22.7497L126.878 23.0164H126.493L126.365 22.8018C126.288 22.6744 126.22 22.5872 126.161 22.5407C126.102 22.4945 126.026 22.4713 125.931 22.4713H125.85V23.0162L125.538 23.0164ZM125.85 22.2592H126.103C126.231 22.2592 126.321 22.2446 126.374 22.216C126.428 22.1869 126.455 22.1401 126.455 22.0746C126.455 22.0157 126.428 21.9717 126.375 21.942C126.323 21.9129 126.243 21.8981 126.135 21.8981H125.85V22.2592Z" fill="black"/>
</g>
<path id="Vector_11" d="M111.392 22.2359C111.392 22.2359 109.974 21.1694 106.368 21.1694C102.762 21.1694 98.1025 22.6831 98.1025 26.4332C98.1025 30.1837 104.18 29.2544 104.18 30.5274C104.18 31.8004 101.627 31.4564 101.627 31.4564C101.627 31.4564 98.7507 30.665 98.7102 29.9769L95.9956 33.796C95.9956 33.796 96.7654 34.897 102.397 34.897C108.029 34.897 110.501 32.523 110.501 29.4611C110.501 26.3993 106.287 26.1581 106.287 26.1581C106.287 26.1581 104.423 26.055 104.423 25.2983C104.423 24.5413 106.003 24.6444 106.003 24.6444C106.003 24.6444 108.151 24.782 108.961 25.6076L111.392 22.2359Z" fill="black"/>
</g>
<defs>
<clipPath id="clip0_764_2352">
<rect width="127" height="47" fill="white" transform="translate(0.632324)"/>
</clipPath>
</defs>
</svg>
