<svg width="229" height="43" viewBox="0 0 229 43" fill="none" xmlns="http://www.w3.org/2000/svg">
<g id="auction_winni_logo 1" clip-path="url(#clip0_764_2374)">
<g id="Group">
<g id="Group_2">
<path id="Vector" d="M37.9782 2.79999H0.678223V40.1H37.9782V2.79999Z" fill="#1A1A1A"/>
<g id="Group_3">
<g id="Group_4">
<g id="Group_5">
<path id="Vector_2" d="M12.9782 14.3H8.37817L12.9782 28.6H16.9782L12.9782 14.3Z" fill="white"/>
<path id="Vector_3" d="M21.2781 14.3H17.2781L21.5781 28.6H25.5781L21.2781 14.3Z" fill="white"/>
</g>
<g id="Group_6">
<path id="Vector_4" d="M25.5781 14.3L27.6781 22.2L30.1781 14.3H25.5781Z" fill="#DD1F26"/>
</g>
</g>
</g>
</g>
<g id="Group_7">
<path id="Vector_5" d="M183.378 25.9L181.078 18.2L178.778 25.9H174.178L169.078 10.1H174.478L176.578 17.7L178.778 10.1H183.378L185.678 17.7L187.678 10.1H193.078L187.978 25.9H183.378Z" fill="#DD1F26"/>
<path id="Vector_6" d="M192.778 10.3L187.878 25.7H183.578L181.078 17.5L178.678 25.7H174.378L169.478 10.3H174.378L176.578 18.5L178.978 10.3H183.278L185.678 18.5L187.878 10.3H192.778Z" fill="#DD1F26"/>
<path id="Vector_7" d="M195.778 25.9V10.1H200.778V25.9H195.778ZM198.278 9.20001C196.678 9.20001 195.278 7.80001 195.278 6.20001C195.278 4.60001 196.678 3.20001 198.278 3.20001C199.878 3.20001 201.278 4.60001 201.278 6.20001C201.278 7.80001 199.978 9.20001 198.278 9.20001Z" fill="#DD1F26"/>
<path id="Vector_8" d="M195.578 6.20002C195.578 4.70002 196.878 3.40002 198.378 3.40002C199.878 3.40002 201.178 4.70002 201.178 6.20002C201.178 7.70002 199.878 9.00002 198.378 9.00002C196.778 8.90002 195.578 7.70002 195.578 6.20002ZM195.978 10.3H200.578V25.7H195.978V10.3Z" fill="#DD1F26"/>
<path id="Vector_9" d="M214.978 25.9V16.9C214.978 15.3 214.078 14.3 212.478 14.3C210.778 14.3 209.878 15.3 209.878 17.2V25.8H204.878V10.1H209.878V11.2C210.878 10.2 212.278 9.70001 214.078 9.70001C217.078 9.70001 220.078 11.7 220.078 16.3V26H214.978V25.9Z" fill="#DD1F26"/>
<path id="Vector_10" d="M219.778 16.2V25.7H215.178V16.9C215.178 15 213.978 14.1 212.478 14.1C210.778 14.1 209.578 15.1 209.578 17.3V25.7H204.978V10.3H209.578V11.7C210.378 10.6 211.978 9.79999 213.978 9.79999C217.078 9.89999 219.778 12.1 219.778 16.2Z" fill="#DD1F26"/>
<path id="Vector_11" d="M223.478 25.9V10.1H228.478V25.9H223.478ZM225.978 9.20001C224.378 9.20001 222.978 7.80001 222.978 6.20001C222.978 4.60001 224.378 3.20001 225.978 3.20001C227.578 3.20001 228.978 4.60001 228.978 6.20001C228.978 7.80001 227.578 9.20001 225.978 9.20001Z" fill="#DD1F26"/>
<path id="Vector_12" d="M223.178 6.20002C223.178 4.70002 224.478 3.40002 225.978 3.40002C227.478 3.40002 228.778 4.70002 228.778 6.20002C228.778 7.70002 227.478 9.00002 225.978 9.00002C224.478 8.90002 223.178 7.70002 223.178 6.20002ZM223.678 10.3H228.278V25.7H223.678V10.3Z" fill="#DD1F26"/>
<path id="Vector_13" d="M82.4783 26.3C79.4783 26.3 76.4783 24.3 76.4783 19.7V10.1H81.4783V19.1C81.4783 20.7 82.3783 21.7 83.9783 21.7C85.6783 21.7 86.5783 20.7 86.5783 18.8V10.1H91.5783V25.9H86.5783V24.8C85.6783 25.8 84.1783 26.3 82.4783 26.3Z" fill="#1A1A1A"/>
<path id="Vector_14" d="M91.4782 10.3V25.7H86.8782V24.3C86.0782 25.4 84.4782 26.2 82.4782 26.2C79.3782 26.2 76.6782 24 76.6782 19.8V10.3H81.2782V19.1C81.2782 21 82.4782 21.9 83.9782 21.9C85.6782 21.9 86.8782 20.9 86.8782 18.7V10.3H91.4782Z" fill="#1A1A1A"/>
<path id="Vector_15" d="M102.678 26.3C97.8783 26.3 94.2783 22.7 94.2783 18C94.2783 13.3 97.8783 9.70001 102.678 9.70001C105.678 9.70001 108.378 11.3 109.778 13.7L109.878 13.9L105.478 16.5L105.378 16.3C104.878 15.3 103.878 14.7 102.578 14.7C100.678 14.7 99.2783 16.1 99.2783 18C99.2783 19.9 100.578 21.3 102.578 21.3C103.878 21.3 104.878 20.7 105.378 19.7L105.478 19.5L109.878 22L109.778 22.2C108.478 24.8 105.678 26.3 102.678 26.3Z" fill="#1A1A1A"/>
<path id="Vector_16" d="M94.5784 18C94.5784 13.4 98.0784 9.90002 102.678 9.90002C105.678 9.90002 108.278 11.5 109.578 13.8L105.578 16.1C105.078 15 103.978 14.4 102.578 14.4C100.578 14.4 99.0784 15.8 99.0784 18C99.0784 20.1 100.578 21.6 102.578 21.6C103.978 21.6 105.078 21 105.578 19.9L109.578 22.2C108.278 24.6 105.678 26.2 102.678 26.2C98.0784 26.1 94.5784 22.6 94.5784 18Z" fill="#1A1A1A"/>
<path id="Vector_17" d="M118.478 26C116.278 26 114.778 25.5 113.878 24.5C112.978 23.6 112.578 22.2 112.578 20.1V7.10004L117.678 5.60004V10H120.878V14.9H117.678V20.1C117.678 20.9 118.178 21.2 119.578 21.2C119.878 21.2 120.178 21.2 120.578 21.2H120.778V25.8H120.578C119.778 26 119.078 26 118.478 26Z" fill="#1A1A1A"/>
<path id="Vector_18" d="M117.378 14.7V20.1C117.378 21.4 118.478 21.5 120.578 21.4V25.7C114.578 26.3 112.778 24.5 112.778 20.2V7.4L117.378 6V10.3H120.578V14.7H117.378Z" fill="#1A1A1A"/>
<path id="Vector_19" d="M124.578 25.9V10.1H129.578V25.9H124.578ZM127.178 9.20001C125.578 9.20001 124.178 7.80001 124.178 6.20001C124.178 4.60001 125.578 3.20001 127.178 3.20001C128.778 3.20001 130.178 4.60001 130.178 6.20001C130.078 7.80001 128.778 9.20001 127.178 9.20001Z" fill="#1A1A1A"/>
<path id="Vector_20" d="M124.378 6.20002C124.378 4.70002 125.678 3.40002 127.178 3.40002C128.678 3.40002 129.978 4.70002 129.978 6.20002C129.978 7.70002 128.678 9.00002 127.178 9.00002C125.578 8.90002 124.378 7.70002 124.378 6.20002ZM124.778 10.3H129.378V25.7H124.778V10.3Z" fill="#1A1A1A"/>
<path id="Vector_21" d="M140.978 26.3C136.278 26.3 132.578 22.6 132.578 18C132.578 13.3 136.278 9.70001 140.978 9.70001C145.678 9.70001 149.378 13.4 149.378 18C149.378 22.7 145.678 26.3 140.978 26.3ZM140.978 14.6C138.978 14.6 137.678 16 137.678 18C137.678 20 139.078 21.4 140.978 21.4C142.978 21.4 144.278 20 144.278 18C144.278 16 142.978 14.6 140.978 14.6Z" fill="#1A1A1A"/>
<path id="Vector_22" d="M132.778 18C132.778 13.4 136.378 9.90002 140.878 9.90002C145.378 9.90002 148.978 13.4 148.978 18C148.978 22.6 145.378 26.1 140.878 26.1C136.478 26.1 132.778 22.6 132.778 18ZM144.478 18C144.478 15.8 142.978 14.4 140.978 14.4C138.978 14.4 137.478 15.8 137.478 18C137.478 20.2 138.978 21.6 140.978 21.6C142.978 21.6 144.478 20.2 144.478 18Z" fill="#1A1A1A"/>
<path id="Vector_23" d="M162.278 25.9V16.9C162.278 15.3 161.378 14.3 159.778 14.3C158.078 14.3 157.178 15.3 157.178 17.2V25.8H152.078V10.1H157.178V11.2C158.178 10.2 159.578 9.70001 161.378 9.70001C164.378 9.70001 167.378 11.7 167.378 16.3V26H162.278V25.9Z" fill="#1A1A1A"/>
<path id="Vector_24" d="M167.078 16.2V25.7H162.478V16.9C162.478 15 161.278 14.1 159.778 14.1C158.078 14.1 156.878 15.1 156.878 17.3V25.7H152.278V10.3H156.878V11.7C157.678 10.6 159.278 9.79999 161.278 9.79999C164.478 9.89999 167.078 12.1 167.078 16.2Z" fill="#1A1A1A"/>
<path id="Vector_25" d="M68.9784 25.9L67.8784 22.5H61.5784L63.1784 17.4H66.2784L62.0784 4.40002L62.2784 4.30002C62.8784 4.10002 63.4784 3.90002 64.0784 3.90002C66.0784 3.90002 67.7784 5.20002 68.4784 7.00002L74.8784 25.9H68.9784Z" fill="#1A1A1A"/>
<path id="Vector_26" d="M68.1783 7.10004C67.5783 5.30004 65.8783 4.10004 63.9783 4.10004C63.3783 4.10004 62.7783 4.20004 62.2783 4.50004L63.9783 9.80004L66.4783 17.7H63.2783L61.7783 22.3H67.9783L69.0783 25.7H74.4783L68.1783 7.10004Z" fill="#1A1A1A"/>
<path id="Vector_27" d="M53.2783 25.9L59.6783 7C59.8783 6.4 60.2783 5.8 60.6783 5.3L60.9783 5L63.3783 12.5L60.1783 22.4L59.0783 25.8H53.2783V25.9Z" fill="#1A1A1A"/>
<path id="Vector_28" d="M60.8784 5.5C60.4784 5.9 60.0784 6.5 59.8784 7.1L53.5784 25.7H58.9784L60.0784 22.3L61.5784 17.7L63.1784 12.7L60.8784 5.5Z" fill="#1A1A1A"/>
</g>
<g id="Group_8">
<path id="Vector_29" d="M55.7783 36.2L54.8783 37.1V39.5H53.9783V32.5H54.8783V36L57.9783 32.5H59.0783L56.2783 35.6L59.2783 39.5H58.1783L55.7783 36.2Z" fill="#6B6E6F"/>
<path id="Vector_30" d="M60.6782 36.8C60.6782 36.3 60.7782 35.8 60.9782 35.4C61.1782 35 61.4782 34.7 61.7782 34.5C62.1782 34.3 62.5782 34.2 62.9782 34.2C63.6782 34.2 64.2782 34.4 64.6782 34.9C65.0782 35.4 65.3782 36 65.3782 36.9V37C65.3782 37.5 65.2782 38 65.0782 38.4C64.8782 38.8 64.5782 39.1 64.2782 39.3C63.8782 39.5 63.4782 39.6 63.0782 39.6C62.3782 39.6 61.7782 39.4 61.3782 38.9C60.8782 38.3 60.6782 37.6 60.6782 36.8ZM61.5782 36.9C61.5782 37.5 61.6782 37.9 61.9782 38.3C62.2782 38.7 62.5782 38.8 63.0782 38.8C63.5782 38.8 63.8782 38.6 64.1782 38.3C64.4782 37.9 64.5782 37.4 64.5782 36.8C64.5782 36.2 64.4782 35.8 64.1782 35.4C63.8782 35 63.5782 34.9 63.0782 34.9C62.6782 34.9 62.2782 35.1 61.9782 35.4C61.6782 35.7 61.5782 36.2 61.5782 36.9Z" fill="#6B6E6F"/>
<path id="Vector_31" d="M70.0784 35C69.9784 35 69.7784 35 69.6784 35C69.0784 35 68.6784 35.2 68.4784 35.7V39.4H67.5784V34.2H68.4784V34.8C68.7784 34.3 69.1784 34.1 69.6784 34.1C69.8784 34.1 69.9784 34.1 70.0784 34.2V35Z" fill="#6B6E6F"/>
<path id="Vector_32" d="M73.9784 39.5C73.2784 39.5 72.6784 39.3 72.2784 38.8C71.8784 38.3 71.5784 37.7 71.5784 36.9V36.7C71.5784 36.2 71.6784 35.7 71.8784 35.3C72.0784 34.9 72.3784 34.6 72.6784 34.3C73.0784 34.1 73.3784 34 73.8784 34C74.5784 34 75.0784 34.2 75.4784 34.7C75.8784 35.1 76.0784 35.8 76.0784 36.6V37H72.5784C72.5784 37.5 72.7784 37.9 73.0784 38.2C73.3784 38.5 73.7784 38.7 74.1784 38.7C74.4784 38.7 74.7784 38.6 74.9784 38.5C75.1784 38.4 75.3784 38.2 75.5784 38L76.0784 38.4C75.5784 39.2 74.8784 39.5 73.9784 39.5ZM73.8784 34.8C73.4784 34.8 73.1784 34.9 72.9784 35.2C72.7784 35.5 72.5784 35.8 72.4784 36.3H75.0784V36.2C75.0784 35.7 74.9784 35.4 74.6784 35.1C74.5784 35 74.2784 34.8 73.8784 34.8Z" fill="#6B6E6F"/>
<path id="Vector_33" d="M81.2782 39.4C81.1782 39.3 81.1782 39.1 81.1782 38.8C80.7782 39.2 80.2782 39.4 79.6782 39.4C79.1782 39.4 78.7782 39.3 78.3782 39C78.0782 38.7 77.8782 38.3 77.8782 37.9C77.8782 37.4 78.0782 36.9 78.4782 36.6C78.8782 36.3 79.4782 36.1 80.1782 36.1H81.0782V35.7C81.0782 35.4 80.9782 35.1 80.7782 35C80.5782 34.8 80.2782 34.7 79.9782 34.7C79.6782 34.7 79.3782 34.8 79.1782 34.9C78.9782 35.1 78.8782 35.3 78.8782 35.5H77.9782C77.9782 35.2 78.0782 35 78.2782 34.7C78.4782 34.5 78.6782 34.3 79.0782 34.1C79.3782 34 79.7782 33.9 80.0782 33.9C80.6782 33.9 81.1782 34.1 81.4782 34.4C81.7782 34.7 81.9782 35.1 81.9782 35.6V38C81.9782 38.5 82.0782 38.9 82.1782 39.1V39.2H81.2782V39.4ZM79.7782 38.7C80.0782 38.7 80.2782 38.6 80.5782 38.5C80.8782 38.4 80.9782 38.2 81.0782 37.9V36.8H80.3782C79.2782 36.8 78.7782 37.1 78.7782 37.8C78.7782 38.1 78.8782 38.3 79.0782 38.5C79.2782 38.7 79.4782 38.7 79.7782 38.7Z" fill="#6B6E6F"/>
<path id="Vector_34" d="M84.1782 34.4L83.6782 34C83.9782 33.6 84.1782 33.1 84.1782 32.7V32H85.0782V32.6C85.0782 32.9 84.9782 33.2 84.8782 33.6C84.5782 33.9 84.3782 34.2 84.1782 34.4Z" fill="#6B6E6F"/>
<path id="Vector_35" d="M89.5783 38C89.5783 37.8 89.4783 37.6 89.2783 37.4C89.0783 37.3 88.7783 37.2 88.2783 37.1C87.7783 37 87.4783 36.9 87.1783 36.8C86.8783 36.7 86.6783 36.5 86.5783 36.3C86.4783 36.1 86.3783 35.9 86.3783 35.6C86.3783 35.2 86.5783 34.8 86.8783 34.5C87.2783 34.2 87.6783 34.1 88.2783 34.1C88.8783 34.1 89.3783 34.3 89.6783 34.6C90.0783 34.9 90.2783 35.3 90.2783 35.8H89.3783C89.3783 35.6 89.2783 35.3 89.0783 35.2C88.8783 35 88.5783 34.9 88.2783 34.9C87.9783 34.9 87.6783 35 87.4783 35.1C87.2783 35.2 87.1783 35.4 87.1783 35.7C87.1783 35.9 87.2783 36.1 87.4783 36.2C87.6783 36.3 87.9783 36.4 88.3783 36.5C88.7783 36.6 89.1783 36.7 89.4783 36.9C89.7783 37.1 89.9783 37.2 90.0783 37.4C90.1783 37.6 90.2783 37.8 90.2783 38.1C90.2783 38.6 90.0783 38.9 89.6783 39.2C89.2783 39.5 88.7783 39.6 88.1783 39.6C87.7783 39.6 87.3783 39.5 87.0783 39.4C86.7783 39.3 86.4783 39 86.2783 38.8C86.0783 38.5 85.9783 38.2 85.9783 37.9H86.8783C86.8783 38.2 86.9783 38.4 87.2783 38.6C87.4783 38.8 87.7783 38.9 88.1783 38.9C88.4783 38.9 88.7783 38.8 88.9783 38.7C89.4783 38.5 89.5783 38.3 89.5783 38Z" fill="#6B6E6F"/>
<path id="Vector_36" d="M101.578 39.4H100.678L97.1783 34V39.4H96.2783V32.4H97.1783L100.678 37.8V32.4H101.578V39.4Z" fill="#6B6E6F"/>
<path id="Vector_37" d="M103.878 36.8C103.878 36.3 103.978 35.8 104.178 35.4C104.378 35 104.678 34.7 104.978 34.5C105.378 34.3 105.778 34.2 106.178 34.2C106.878 34.2 107.478 34.4 107.878 34.9C108.278 35.4 108.578 36 108.578 36.9V37C108.578 37.5 108.478 38 108.278 38.4C108.078 38.8 107.778 39.1 107.478 39.3C107.078 39.5 106.678 39.6 106.278 39.6C105.578 39.6 104.978 39.4 104.578 38.9C104.078 38.3 103.878 37.6 103.878 36.8ZM104.778 36.9C104.778 37.5 104.878 37.9 105.178 38.3C105.478 38.7 105.778 38.8 106.278 38.8C106.778 38.8 107.078 38.6 107.378 38.3C107.678 37.9 107.778 37.4 107.778 36.8C107.778 36.2 107.678 35.8 107.378 35.4C107.078 35 106.778 34.9 106.278 34.9C105.878 34.9 105.478 35.1 105.178 35.4C104.878 35.7 104.778 36.2 104.778 36.9Z" fill="#6B6E6F"/>
<path id="Vector_38" d="M110.778 39C110.778 38.8 110.778 38.7 110.878 38.6C110.978 38.5 111.078 38.4 111.278 38.4C111.478 38.4 111.578 38.5 111.678 38.6C111.778 38.7 111.778 38.8 111.778 39C111.778 39.1 111.778 39.3 111.678 39.4C111.578 39.5 111.478 39.5 111.278 39.5C111.078 39.5 110.978 39.5 110.878 39.4C110.778 39.2 110.778 39.1 110.778 39Z" fill="#6B6E6F"/>
<path id="Vector_39" d="M117.178 39.4H116.278V33.4L114.478 34.1V33.3L117.078 32.3H117.178V39.4Z" fill="#6B6E6F"/>
<path id="Vector_40" d="M129.578 38.5C129.378 38.8 128.978 39.1 128.578 39.3C128.178 39.5 127.678 39.6 127.078 39.6C126.478 39.6 125.978 39.5 125.578 39.2C125.178 38.9 124.778 38.5 124.578 38.1C124.378 37.6 124.178 37 124.178 36.4V35.8C124.178 34.7 124.378 33.9 124.878 33.3C125.378 32.7 126.078 32.4 126.978 32.4C127.678 32.4 128.278 32.6 128.778 33C129.178 33.4 129.478 33.9 129.578 34.6H128.678C128.478 33.7 127.978 33.2 126.978 33.2C126.378 33.2 125.878 33.4 125.578 33.9C125.278 34.3 125.078 35 125.078 35.8V36.4C125.078 37.2 125.278 37.8 125.578 38.3C125.978 38.8 126.378 39 127.078 39C127.378 39 127.778 39 127.978 38.9C128.278 38.8 128.478 38.7 128.578 38.5V36.7H126.978V35.9H129.478V38.5H129.578Z" fill="#6B6E6F"/>
<path id="Vector_41" d="M132.978 39.4H132.078V32H132.978V39.4Z" fill="#6B6E6F"/>
<path id="Vector_42" d="M135.178 36.8C135.178 36.3 135.278 35.8 135.478 35.4C135.678 35 135.978 34.7 136.278 34.5C136.678 34.3 137.078 34.2 137.478 34.2C138.178 34.2 138.778 34.4 139.178 34.9C139.578 35.4 139.878 36 139.878 36.9V37C139.878 37.5 139.778 38 139.578 38.4C139.378 38.8 139.078 39.1 138.778 39.3C138.378 39.5 137.978 39.6 137.578 39.6C136.878 39.6 136.278 39.4 135.878 38.9C135.378 38.3 135.178 37.6 135.178 36.8ZM136.078 36.9C136.078 37.5 136.178 37.9 136.478 38.3C136.778 38.7 137.078 38.8 137.578 38.8C138.078 38.8 138.378 38.6 138.678 38.3C138.978 37.9 139.078 37.4 139.078 36.8C139.078 36.2 138.978 35.8 138.678 35.4C138.378 35 138.078 34.9 137.578 34.9C137.178 34.9 136.778 35.1 136.478 35.4C136.178 35.7 136.078 36.2 136.078 36.9Z" fill="#6B6E6F"/>
<path id="Vector_43" d="M146.478 36.9C146.478 37.7 146.278 38.3 145.978 38.8C145.578 39.3 145.078 39.5 144.478 39.5C143.778 39.5 143.278 39.3 142.978 38.8V39.4H142.178V32H143.078V34.8C143.478 34.4 143.978 34.1 144.578 34.1C145.178 34.1 145.678 34.3 146.078 34.8C146.278 35.3 146.478 36 146.478 36.9ZM145.578 36.8C145.578 36.2 145.478 35.7 145.178 35.4C144.878 35.1 144.578 34.9 144.178 34.9C143.578 34.9 143.178 35.2 142.878 35.7V38C143.178 38.5 143.578 38.8 144.178 38.8C144.578 38.8 144.978 38.6 145.178 38.3C145.478 37.9 145.578 37.4 145.578 36.8Z" fill="#6B6E6F"/>
<path id="Vector_44" d="M151.778 39.4C151.678 39.3 151.678 39.1 151.678 38.8C151.278 39.2 150.778 39.4 150.178 39.4C149.678 39.4 149.278 39.3 148.878 39C148.578 38.7 148.378 38.3 148.378 37.9C148.378 37.4 148.578 36.9 148.978 36.6C149.378 36.3 149.978 36.1 150.678 36.1H151.578V35.7C151.578 35.4 151.478 35.1 151.278 35C151.078 34.8 150.778 34.7 150.478 34.7C150.178 34.7 149.878 34.8 149.678 34.9C149.478 35.1 149.378 35.3 149.378 35.5H148.478C148.478 35.2 148.578 35 148.778 34.7C148.978 34.5 149.178 34.3 149.578 34.1C149.878 34 150.278 33.9 150.578 33.9C151.178 33.9 151.678 34.1 151.978 34.4C152.278 34.7 152.478 35.1 152.478 35.6V38C152.478 38.5 152.578 38.9 152.678 39.1V39.2H151.778V39.4ZM150.278 38.7C150.578 38.7 150.778 38.6 151.078 38.5C151.378 38.4 151.478 38.2 151.578 37.9V36.8H150.878C149.778 36.8 149.278 37.1 149.278 37.8C149.278 38.1 149.378 38.3 149.578 38.5C149.778 38.7 149.978 38.7 150.278 38.7Z" fill="#6B6E6F"/>
<path id="Vector_45" d="M155.878 39.4H154.978V32H155.878V39.4Z" fill="#6B6E6F"/>
<path id="Vector_46" d="M165.778 37.6H162.878L162.178 39.4H161.178L163.878 32.4H164.678L167.378 39.4H166.378L165.778 37.6ZM163.078 36.8H165.478L164.278 33.5L163.078 36.8Z" fill="#6B6E6F"/>
<path id="Vector_47" d="M172.378 38.9C172.078 39.3 171.478 39.5 170.878 39.5C170.278 39.5 169.878 39.3 169.578 39C169.278 38.7 169.178 38.2 169.178 37.6V34.2H170.078V37.6C170.078 38.4 170.378 38.8 171.078 38.8C171.778 38.8 172.178 38.5 172.478 38V34.2H173.378V39.4H172.578L172.378 38.9Z" fill="#6B6E6F"/>
<path id="Vector_48" d="M176.778 32.9V34.2H177.778V34.9H176.778V38.1C176.778 38.3 176.778 38.5 176.878 38.6C176.978 38.7 177.078 38.8 177.278 38.8C177.378 38.8 177.478 38.8 177.678 38.7V39.4C177.478 39.5 177.178 39.5 176.978 39.5C176.578 39.5 176.278 39.4 176.078 39.1C175.878 38.8 175.778 38.5 175.778 38.1V34.9H174.778V34.2H175.778V32.9H176.778Z" fill="#6B6E6F"/>
<path id="Vector_49" d="M179.478 36.8C179.478 36.3 179.578 35.8 179.778 35.4C179.978 35 180.278 34.7 180.578 34.5C180.978 34.3 181.378 34.2 181.778 34.2C182.478 34.2 183.078 34.4 183.478 34.9C183.878 35.4 184.178 36 184.178 36.9V37C184.178 37.5 184.078 38 183.878 38.4C183.678 38.8 183.378 39.1 183.078 39.3C182.678 39.5 182.278 39.6 181.878 39.6C181.178 39.6 180.578 39.4 180.178 38.9C179.678 38.3 179.478 37.6 179.478 36.8ZM180.378 36.9C180.378 37.5 180.478 37.9 180.778 38.3C181.078 38.7 181.378 38.8 181.878 38.8C182.378 38.8 182.678 38.6 182.978 38.3C183.278 37.9 183.378 37.4 183.378 36.8C183.378 36.2 183.278 35.8 182.978 35.4C182.678 35 182.378 34.9 181.878 34.9C181.478 34.9 181.078 35.1 180.778 35.4C180.478 35.7 180.378 36.2 180.378 36.9Z" fill="#6B6E6F"/>
<path id="Vector_50" d="M193.778 37.6H190.878L190.178 39.4H189.178L191.878 32.4H192.678L195.378 39.4H194.378L193.778 37.6ZM191.078 36.8H193.478L192.278 33.5L191.078 36.8Z" fill="#6B6E6F"/>
<path id="Vector_51" d="M200.378 38.9C200.078 39.3 199.478 39.5 198.878 39.5C198.278 39.5 197.878 39.3 197.578 39C197.278 38.7 197.178 38.2 197.178 37.6V34.2H198.078V37.6C198.078 38.4 198.378 38.8 199.078 38.8C199.778 38.8 200.178 38.5 200.478 38V34.2H201.378V39.4H200.578L200.378 38.9Z" fill="#6B6E6F"/>
<path id="Vector_52" d="M205.678 38.8C205.978 38.8 206.278 38.7 206.478 38.5C206.678 38.3 206.878 38.1 206.878 37.8H207.678C207.678 38.1 207.578 38.4 207.378 38.7C207.178 39 206.978 39.2 206.578 39.3C206.278 39.5 205.878 39.5 205.578 39.5C204.878 39.5 204.278 39.3 203.878 38.8C203.478 38.3 203.278 37.7 203.278 36.9V36.7C203.278 36.2 203.378 35.7 203.578 35.3C203.778 34.9 204.078 34.6 204.378 34.4C204.678 34.2 205.178 34.1 205.578 34.1C206.178 34.1 206.678 34.3 207.078 34.6C207.478 35 207.678 35.4 207.678 36H206.878C206.878 35.7 206.678 35.4 206.478 35.2C206.278 35 205.978 34.9 205.578 34.9C205.078 34.9 204.778 35.1 204.478 35.4C204.278 35.7 204.078 36.2 204.078 36.8V37C204.078 37.6 204.178 38.1 204.478 38.4C204.878 38.6 205.278 38.8 205.678 38.8Z" fill="#6B6E6F"/>
<path id="Vector_53" d="M210.978 32.9V34.2H211.978V34.9H210.978V38.1C210.978 38.3 210.978 38.5 211.078 38.6C211.178 38.7 211.278 38.8 211.478 38.8C211.578 38.8 211.678 38.8 211.878 38.7V39.4C211.678 39.5 211.378 39.5 211.178 39.5C210.778 39.5 210.478 39.4 210.278 39.1C210.078 38.8 209.978 38.5 209.978 38.1V34.9H208.978V34.2H209.978V32.9H210.978Z" fill="#6B6E6F"/>
<path id="Vector_54" d="M213.978 32.8C213.978 32.7 213.978 32.5 214.078 32.4C214.178 32.3 214.278 32.3 214.478 32.3C214.678 32.3 214.778 32.3 214.878 32.4C214.978 32.5 214.978 32.6 214.978 32.8C214.978 32.9 214.978 33.1 214.878 33.2C214.778 33.3 214.678 33.3 214.478 33.3C214.278 33.3 214.178 33.3 214.078 33.2C213.978 33.1 213.978 33 213.978 32.8ZM214.978 39.4H214.078V34.2H214.978V39.4Z" fill="#6B6E6F"/>
<path id="Vector_55" d="M217.178 36.8C217.178 36.3 217.278 35.8 217.478 35.4C217.678 35 217.978 34.7 218.278 34.5C218.678 34.3 219.078 34.2 219.478 34.2C220.178 34.2 220.778 34.4 221.178 34.9C221.578 35.4 221.878 36 221.878 36.9V37C221.878 37.5 221.778 38 221.578 38.4C221.378 38.8 221.078 39.1 220.778 39.3C220.378 39.5 219.978 39.6 219.578 39.6C218.878 39.6 218.278 39.4 217.878 38.9C217.378 38.3 217.178 37.6 217.178 36.8ZM217.978 36.9C217.978 37.5 218.078 37.9 218.378 38.3C218.678 38.7 218.978 38.8 219.478 38.8C219.978 38.8 220.278 38.6 220.578 38.3C220.878 37.9 220.978 37.4 220.978 36.8C220.978 36.2 220.878 35.8 220.578 35.4C220.278 35 219.978 34.9 219.478 34.9C219.078 34.9 218.678 35.1 218.378 35.4C218.178 35.7 217.978 36.2 217.978 36.9Z" fill="#6B6E6F"/>
<path id="Vector_56" d="M224.878 34.2V34.9C225.278 34.4 225.778 34.1 226.478 34.1C227.578 34.1 228.178 34.7 228.178 36V39.5H227.278V36C227.278 35.6 227.178 35.3 226.978 35.2C226.778 35 226.578 34.9 226.178 34.9C225.878 34.9 225.678 35 225.378 35.1C225.178 35.3 224.978 35.5 224.878 35.7V39.4H223.978V34.2H224.878Z" fill="#6B6E6F"/>
</g>
</g>
</g>
<defs>
<clipPath id="clip0_764_2374">
<rect width="228.3" height="41.6" fill="white" transform="translate(0.678223 0.700012)"/>
</clipPath>
</defs>
</svg>
