<svg width="96" height="39" viewBox="0 0 96 39" fill="none" xmlns="http://www.w3.org/2000/svg">
<g id="Copart Logo" clip-path="url(#clip0_764_2314)">
<g id="g310">
<path id="Fill-1" fill-rule="evenodd" clip-rule="evenodd" d="M94.2354 19.49C89.4752 29.705 68.4212 38.0212 47.3692 38.0212C26.296 38.0212 13.0061 29.705 17.7659 19.49C22.5067 9.31487 43.5791 0.978638 64.6333 0.978638C85.7056 0.978638 98.9932 9.31487 94.2354 19.49Z" fill="#032B76"/>
<path id="Fill-3" fill-rule="evenodd" clip-rule="evenodd" d="M64.16 1.37329C84.6348 1.37329 97.5212 9.45273 92.8641 19.3313C88.2261 29.2306 67.7328 37.3107 47.2986 37.3107C26.8247 37.3107 13.9372 29.2306 18.5747 19.3313C21.5851 12.9627 31.1196 7.37357 42.9837 4.16761C43.826 3.9283 44.6897 3.7341 45.5527 3.51666C51.4536 2.15332 57.8171 1.37329 64.16 1.37329Z" fill="#0A0A08"/>
<path id="Fill-4" fill-rule="evenodd" clip-rule="evenodd" d="M63.8528 1.91046C84.0693 1.91046 96.8198 9.70803 92.2537 19.2267C87.6871 28.7823 67.4882 36.5628 47.2904 36.5628C27.0732 36.5628 14.3229 28.7823 18.8899 19.2267C23.4382 9.70803 43.6543 1.91046 63.8528 1.91046Z" fill="#969998"/>
<path id="Fill-6" fill-rule="evenodd" clip-rule="evenodd" d="M60.6302 3.53735C78.8948 3.53735 90.3908 10.5119 86.2362 19.0398C82.0989 27.5857 63.817 34.5608 45.5885 34.5608C27.3243 34.5608 15.8277 27.5857 19.9646 19.0398C22.6502 13.5421 31.1556 8.71682 41.7391 5.94965C42.4907 5.74297 43.2612 5.57536 44.031 5.38804C49.2951 4.21065 54.9717 3.53735 60.6302 3.53735Z" fill="#0A0A08"/>
<path id="Fill-7" fill-rule="evenodd" clip-rule="evenodd" d="M83.2388 12.0448C84.1152 13.5651 84.2772 15.2761 83.5834 17.07C82.9334 18.4278 82.188 19.5209 81.0771 20.5964C75.3146 26.1565 62.3476 30.3036 49.3977 30.3036C34.1289 30.3036 24.5002 24.5412 27.9788 17.4768C30.3689 12.6136 38.4685 8.19249 48.168 6.00771C49.3091 5.75123 50.4685 5.54938 51.6455 5.36554C49.3635 5.60461 47.1307 5.95274 44.9354 6.44791C34.1817 8.92584 25.0627 12.9266 22.4086 18.4678C18.5613 26.5237 29.2261 33.0926 46.1652 33.0926C60.0442 33.0926 73.9437 28.6892 80.6204 22.6512C81.3743 21.9735 82.2567 21.0161 82.9492 19.9961C83.2352 19.5833 83.4857 19.1655 83.695 18.7437C84.8901 16.321 84.6619 14.0271 83.2388 12.0448Z" fill="#0D5DB8"/>
<path id="Fill-9" fill-rule="evenodd" clip-rule="evenodd" d="M10.9247 17.771C10.601 18.3023 10.2763 18.6946 9.95943 18.9374L9.94687 18.9481C9.58112 19.2484 9.10212 19.401 8.5231 19.401C8.14699 19.401 7.88877 19.3225 7.81672 19.1892C7.80923 19.1704 7.63957 18.6808 8.1633 16.919C8.50965 15.803 8.9133 15.0058 9.36299 14.5492C9.92131 13.9657 10.5204 13.6939 11.2484 13.6939C11.4771 13.6939 11.667 13.7309 11.7826 13.7976C11.8692 13.8487 11.9378 13.8888 11.9649 14.2175L12.0706 15.5037H17.8759C17.5114 16.0079 17.1997 16.5514 16.9494 17.1204H11.3213L10.9247 17.771ZM24.9971 18.145C24.7805 18.865 24.5014 19.3879 24.1901 19.6562C23.8717 19.9223 23.6042 20.0412 23.3224 20.0412C23.264 20.0412 23.2268 20.0358 23.205 20.0305C23.1926 19.9509 23.1741 19.6688 23.3678 19.0238C23.5527 18.3669 23.8245 17.8683 24.153 17.5818C24.454 17.3304 24.7327 17.2182 25.0564 17.2182C25.0956 17.2182 25.1238 17.2205 25.1434 17.2235C25.1552 17.3127 25.1629 17.578 24.9971 18.145ZM38.8598 18.1316C38.6816 18.7676 38.4421 19.2415 38.1854 19.4666C37.9761 19.6507 37.7992 19.7402 37.6447 19.7402C37.6291 19.7402 37.615 19.7397 37.6022 19.7393C37.6055 19.6284 37.6297 19.4058 37.7401 19.0342C37.9796 18.2194 38.2499 17.8699 38.435 17.7196C38.6465 17.5395 38.8283 17.4452 39.0193 17.4173C39.008 17.552 38.9711 17.776 38.8642 18.117L38.8598 18.1316ZM79.6507 11.805L81.1902 6.65173L73.2775 10.0792L73.0752 10.1671L72.5868 11.8049H71.018L70.9536 12.0196C70.2918 11.7104 69.6387 11.5599 68.9581 11.5599C68.4245 11.5599 67.9177 11.6423 67.4517 11.8048H61.2543L60.0815 15.717C60.083 15.5572 60.0789 15.3934 60.0684 15.2278C60.0126 14.3785 59.7269 13.6261 59.2642 13.1107C58.6878 12.4229 57.8748 11.9795 56.8481 11.7922C56.087 11.6337 55.0548 11.5598 53.5991 11.5598C52.7475 11.5598 51.9433 11.6201 51.1404 11.7445C50.2327 11.891 49.5668 12.083 49.0458 12.3483C48.2731 12.6985 47.6323 13.1242 47.1428 13.6132C46.7111 14.0241 46.3168 14.5476 45.938 15.2112C45.8605 14.7954 45.7415 14.3953 45.5837 14.02C45.0818 12.8976 43.9517 11.5597 41.4173 11.5597C40.7913 11.5597 40.2004 11.6419 39.6132 11.8111L39.6152 11.8058H32.8462L31.8719 15.0566C31.7589 14.7202 31.6102 14.3937 31.4293 14.0847C30.4096 12.4098 28.5265 11.5607 25.8323 11.5607C23.6224 11.5607 21.6555 12.179 19.9865 13.3987C19.6789 13.6247 19.3843 13.867 19.1105 14.1192V14.0978C19.1105 11.6999 18.4869 10.0036 17.2048 8.91223C16.0875 7.91637 14.4404 7.43222 12.169 7.43222C9.45915 7.43222 7.07386 8.19479 5.079 9.69941C3.09515 11.2086 1.68394 13.3589 0.885027 16.0897C0.23836 18.2223 0.165872 20.0527 0.669325 21.531C1.20869 23.075 2.10125 24.1753 3.32187 24.8003C4.41889 25.3732 5.91383 25.6634 7.76503 25.6634C9.30492 25.6634 10.6522 25.4377 11.7689 24.992C12.8958 24.5647 13.9631 23.8972 14.9416 23.0076C15.388 22.5884 15.8789 22.0331 16.3281 21.4397C16.5672 22.6003 17.15 23.4209 17.601 23.9077C18.704 25.0601 20.3436 25.6445 22.4749 25.6445C24.7143 25.6445 26.7048 25.0203 28.3905 23.7884C28.8085 23.4828 29.1993 23.147 29.5539 22.789L27.5451 29.4904H34.6258L35.909 25.2357C36.5266 25.5072 37.2376 25.6445 38.0233 25.6445C39.672 25.6445 41.2148 25.0684 42.6086 23.9315C43.0067 23.6052 43.3813 23.2292 43.723 22.8134C43.8488 23.3493 44.0996 23.8374 44.4682 24.2647C45.2466 25.1931 46.4683 25.6445 48.203 25.6445C49.3471 25.6445 50.4197 25.4657 51.3911 25.1128C51.5507 25.0539 51.7139 24.9864 51.877 24.9122L52.0325 25.3987H64.2441L65.6229 20.7951C66.1971 18.8896 66.723 18.1285 66.9841 17.8457C67.2366 17.6101 67.4056 17.5776 67.5506 17.5776C67.567 17.5776 67.7239 17.583 68.1062 17.7589L69.0585 18.1984L69.511 17.6289L70.8423 17.6316L70.2577 19.5823C69.801 21.0351 69.647 22.0713 69.7732 22.8426C69.9052 23.786 70.3921 24.567 71.1443 25.041C71.7866 25.4522 72.7153 25.6436 74.0666 25.6436C75.0528 25.6436 76.1533 25.521 77.3385 25.2789L77.914 25.1613L78.2202 25.0982L79.4056 19.0261L77.2845 19.676L77.8919 17.6329H80.2177L81.9608 11.804L79.6507 11.805Z" fill="white"/>
<path id="Fill-11" fill-rule="evenodd" clip-rule="evenodd" d="M11.518 17.4933L11.2267 17.9716C10.879 18.542 10.5241 18.9687 10.168 19.2413C9.73796 19.5945 9.18427 19.774 8.52306 19.774C7.9914 19.774 7.64813 19.6374 7.50271 19.3674C7.45468 19.2801 7.24471 18.7466 7.82087 16.8087C8.18661 15.6304 8.62133 14.7797 9.1142 14.2795C9.73223 13.6334 10.4305 13.3193 11.2483 13.3193C11.5451 13.3193 11.7833 13.3699 11.9554 13.4692C12.1598 13.5897 12.2852 13.7451 12.3215 14.1848L12.3991 15.1291H18.6368C18.0212 15.8392 17.5345 16.6296 17.1822 17.4934L11.518 17.4933ZM25.3397 18.2533C25.098 19.0563 24.7878 19.6256 24.4189 19.9436C24.0345 20.265 23.6861 20.4151 23.3224 20.4151C22.9994 20.4151 22.9333 20.297 22.889 20.2177C22.8718 20.188 22.7301 19.8986 23.0262 18.9108C23.2329 18.1777 23.535 17.6339 23.9223 17.2961C24.2909 16.988 24.6512 16.8445 25.0564 16.8445C25.3542 16.8445 25.406 16.9368 25.4626 17.0372C25.4691 17.0479 25.6164 17.3085 25.3397 18.2533ZM37.3979 18.9221C37.6092 18.2042 37.8917 17.686 38.2169 17.4221C38.5277 17.1571 38.8217 17.0333 39.1422 17.0333C39.3066 17.0333 39.3176 17.0547 39.3555 17.1262C39.3881 17.1843 39.43 17.5119 39.2035 18.2353C39.0025 18.9516 38.7302 19.4762 38.4156 19.7519C38.1393 19.995 37.887 20.1128 37.6447 20.1128C37.3518 20.1128 37.3029 20.0275 37.2708 19.9715C37.2697 19.969 37.158 19.732 37.3979 18.9221ZM45.3643 18.7388C45.5082 18.2057 45.6056 17.6859 45.655 17.1886L47.5339 17.3875C46.8507 17.6298 46.295 17.9289 45.8455 18.2952C45.6755 18.4329 45.5148 18.5814 45.3643 18.7388ZM79.9548 17.2588L81.4739 12.1778H79.164L80.6204 7.30219L73.3669 10.4442L72.8504 12.1778H71.281L71.1704 12.5464C70.4319 12.1336 69.7068 11.9327 68.9581 11.9327C68.4412 11.9327 67.9554 12.0152 67.5112 12.1777H61.5174L57.9639 24.0323L57.9308 23.8229C57.8515 23.3222 57.8436 23.073 57.8506 22.9534C57.8591 22.8278 57.9028 22.5599 58.0615 22.0001L59.4833 17.2479C59.6818 16.6223 59.7563 15.9693 59.7111 15.2512C59.6608 14.4845 59.4075 13.8123 59.0003 13.362C58.4788 12.737 57.7336 12.3323 56.7884 12.1599C56.0437 12.0049 55.0304 11.9326 53.5991 11.9326C52.7652 11.9326 51.9782 11.9915 51.1929 12.1136C50.3187 12.2544 49.683 12.437 49.1978 12.6859C48.4597 13.0193 47.8514 13.422 47.3916 13.881C46.9018 14.3479 46.4576 14.9729 46.0335 15.7918L45.6906 16.4536C45.6913 15.6238 45.5457 14.8573 45.255 14.1675C44.7992 13.1479 43.7632 11.9326 41.4173 11.9326C40.5997 11.9326 39.827 12.0838 39.0656 12.3934L39.1294 12.1777H33.1094L31.7876 16.5871C31.7539 15.7479 31.5316 14.9736 31.1231 14.2766C30.1761 12.7212 28.3961 11.9326 25.8323 11.9326C23.6973 11.9326 21.7996 12.5281 20.1917 13.7032C19.6552 14.0976 19.1751 14.5297 18.7525 14.9982V14.0965C18.7525 11.8181 18.1719 10.2165 16.9802 9.20156C15.9254 8.26163 14.3516 7.80489 12.169 7.80489C9.5361 7.80489 7.2211 8.54372 5.28837 10.0012C3.36952 11.4613 2.00326 13.5463 1.2277 16.197C0.604387 18.2525 0.529915 20.0047 1.00693 21.4051C1.5128 22.8531 2.34477 23.8821 3.4788 24.4631C4.52801 25.0105 5.97007 25.2882 7.76509 25.2882C9.26091 25.2882 10.5653 25.0706 11.6402 24.6421C12.7302 24.2284 13.7618 23.5832 14.7077 22.7235C15.3361 22.1333 16.0303 21.2894 16.5761 20.4589C16.6168 21.981 17.2818 23.0243 17.8593 23.6476C18.8893 24.7236 20.4424 25.2694 22.475 25.2694C24.6397 25.2694 26.561 24.6676 28.1854 23.4805C29.0925 22.8172 29.8441 22.0272 30.428 21.1239L28.0323 29.1152H34.3633L35.6897 24.7181C35.7694 24.7606 35.8509 24.8005 35.9322 24.8366C36.5315 25.124 37.235 25.2695 38.0234 25.2695C39.5904 25.2695 41.0589 24.72 42.3885 23.6355C42.9909 23.1415 43.529 22.5366 43.9925 21.833C43.946 22.8548 44.3537 23.5722 44.7335 24.0124C45.4428 24.8583 46.5777 25.2695 48.203 25.2695C49.3069 25.2695 50.34 25.0976 51.274 24.7584C51.5384 24.6607 51.812 24.5391 52.0894 24.396L52.2904 25.0237H63.981L65.281 20.6829C65.8527 18.7865 66.3892 17.9443 66.7343 17.5766C67.0075 17.318 67.2595 17.2027 67.5506 17.2027C67.622 17.2027 67.8335 17.2241 68.251 17.4157L68.9559 17.7414L69.3434 17.2538L71.3293 17.2592L70.6 19.6934C70.1595 21.0945 70.0095 22.077 70.1267 22.7831C70.2419 23.6168 70.6689 24.3052 71.3288 24.7215C71.9142 25.0961 72.7843 25.2703 74.0666 25.2703C75.0293 25.2703 76.1069 25.15 77.2696 24.9124L77.9171 24.7802L78.9361 19.5602L77.3612 20.0429C77.1358 20.1117 76.9316 20.1674 76.7518 20.2079L77.6283 17.2596L79.9548 17.2588Z" fill="#0A0A08"/>
<path id="Fill-12" fill-rule="evenodd" clip-rule="evenodd" d="M16.5005 18.5259C16.0135 19.6942 14.9482 21.1078 14.0462 21.9557C13.2153 22.7107 12.2948 23.2947 11.3024 23.6716C10.3099 24.0669 9.1192 24.2559 7.76506 24.2559C6.10421 24.2559 4.82344 24.0106 3.92097 23.5393C3.00065 23.068 2.35046 22.2385 1.93602 21.0512C1.53766 19.8828 1.61037 18.3559 2.17023 16.5087C2.89247 14.0409 4.13755 12.1543 5.87044 10.836C7.62052 9.51666 9.71431 8.8374 12.169 8.8374C14.0817 8.8374 15.4715 9.21474 16.3381 9.98742C17.5111 10.9858 17.7638 12.6262 17.7638 14.0966H13.3066C13.2521 13.4368 13.0173 12.9087 12.4402 12.5696C12.1144 12.3808 11.7178 12.2866 11.2482 12.2866C10.1834 12.2866 9.22672 12.701 8.41459 13.5496C7.80141 14.172 7.29553 15.152 6.88021 16.4898C6.39306 18.1295 6.30339 19.2614 6.64578 19.8828C6.97099 20.4869 7.60289 20.8064 8.52299 20.8064C9.42568 20.8064 10.1834 20.5422 10.7794 20.0529C11.2482 19.6941 11.6814 19.1484 12.0608 18.5259H16.5005Z" fill="white"/>
<path id="Fill-13" fill-rule="evenodd" clip-rule="evenodd" d="M26.2829 18.5635C25.9764 19.5817 25.5611 20.2979 25.0372 20.7494C24.4958 21.2025 23.9368 21.4475 23.3223 21.4475C22.7275 21.4475 22.2941 21.2025 22.0416 20.7494C21.7706 20.2793 21.7888 19.5816 22.0777 18.6189C22.3483 17.6585 22.7631 16.9613 23.3043 16.4899C23.8458 16.0368 24.424 15.812 25.0563 15.812C25.6327 15.812 26.0478 16.0369 26.3012 16.4899C26.5718 16.9422 26.5532 17.6403 26.2829 18.5635ZM30.2889 14.831C29.5314 13.5869 28.0517 12.9652 25.8323 12.9652C23.9 12.9652 22.2033 13.4937 20.7606 14.5482C19.298 15.6228 18.3228 16.9801 17.8361 18.6189C17.2948 20.3916 17.5473 21.8247 18.5586 22.9177C19.3881 23.7844 20.6874 24.237 22.475 24.237C24.459 24.237 26.1745 23.69 27.6183 22.6348C29.0619 21.5793 30.019 20.222 30.5238 18.5635C30.975 17.0934 30.8852 15.8492 30.2889 14.831Z" fill="white"/>
<path id="Fill-14" fill-rule="evenodd" clip-rule="evenodd" d="M40.1525 18.526C39.8826 19.4871 39.5036 20.1465 39.0522 20.5423C38.6012 20.9385 38.1323 21.1459 37.6447 21.1459C37.0851 21.1459 36.6698 20.9387 36.4351 20.523C36.1826 20.1093 36.2013 19.4684 36.453 18.6189C36.7243 17.6969 37.1032 17.0177 37.5913 16.6226C38.0778 16.2075 38.5828 16.0006 39.1424 16.0006C39.63 16.0006 39.9913 16.1891 40.2081 16.603C40.4415 17.0177 40.4246 17.6585 40.1525 18.526ZM44.3593 14.6046C43.8708 13.5123 42.8967 12.9652 41.4174 12.9652C40.6769 12.9652 39.9549 13.1156 39.2333 13.4369C38.7096 13.6626 38.0777 14.1145 37.3202 14.7933L37.7888 13.2102H33.8361L29.3782 28.0828H33.6382L35.1907 22.9363C35.4789 23.37 35.8761 23.69 36.3452 23.8978C36.8145 24.123 37.3739 24.237 38.0235 24.237C39.3589 24.237 40.6231 23.7651 41.7779 22.8235C42.9509 21.8619 43.7992 20.5048 44.3403 18.7137C44.8283 17.0743 44.8283 15.7171 44.3593 14.6046Z" fill="white"/>
<path id="Fill-15" fill-rule="evenodd" clip-rule="evenodd" d="M53.636 19.525C53.4728 20.034 53.2732 20.467 53.0028 20.7878C52.7322 21.1079 52.3711 21.3716 51.9025 21.5983C51.433 21.8248 50.9648 21.9377 50.4761 21.9377C50.0259 21.9377 49.7181 21.8247 49.5569 21.6169C49.376 21.41 49.339 21.1459 49.4476 20.8258C49.5207 20.5423 49.7181 20.2979 50.0259 20.0713C50.3141 19.8451 50.9271 19.6378 51.8483 19.4111C52.5344 19.2417 53.1833 19.072 53.8326 18.8649L53.636 19.525ZM58.7245 15.3216C58.6888 14.7754 58.5263 14.3416 58.2541 14.0409C57.8765 13.5869 57.3162 13.3044 56.5948 13.173C55.8737 13.0223 54.8615 12.9652 53.5992 12.9652C52.8045 12.9652 52.0653 13.0222 51.3431 13.1347C50.6387 13.2474 50.0427 13.3992 49.6106 13.6253C48.9785 13.9078 48.4561 14.247 48.0588 14.6432C47.644 15.0387 47.2648 15.5848 46.9034 16.2832L50.818 16.6973C51.1267 16.2263 51.433 15.906 51.7584 15.7359C52.1737 15.5284 52.7151 15.4157 53.4186 15.4157C53.9595 15.4157 54.303 15.5096 54.4647 15.717C54.6106 15.9243 54.6106 16.2832 54.4647 16.7919C53.8705 16.9801 53.3274 17.1496 52.823 17.2819C52.2997 17.3944 51.2162 17.6218 49.5383 17.9409C48.1304 18.1859 47.1015 18.5813 46.4524 19.1103C45.8031 19.6377 45.3514 20.3169 45.1166 21.1271C44.8462 22.0132 44.9731 22.7473 45.4775 23.332C45.9835 23.9355 46.8854 24.237 48.2032 24.237C49.1944 24.237 50.115 24.0854 50.9447 23.7843C51.5592 23.5578 52.2279 23.1814 52.9305 22.6725C52.8944 22.9737 52.8772 23.1996 52.8772 23.3508C52.8772 23.5024 52.912 23.7075 53.0028 23.9912H56.9551C56.8837 23.5393 56.8471 23.1626 56.8647 22.8805C56.8837 22.597 56.974 22.2008 57.1177 21.6925L58.5452 16.9237C58.706 16.4145 58.7603 15.8872 58.7245 15.3216Z" fill="white"/>
<path id="Fill-16" fill-rule="evenodd" clip-rule="evenodd" d="M62.2438 13.2102H66.1962L65.673 14.9627C66.287 14.2091 66.8462 13.6817 67.334 13.3991C67.8207 13.0972 68.3616 12.9652 68.9581 12.9652C69.59 12.9652 70.2027 13.1539 70.834 13.5307L68.6505 16.4714C68.1999 16.2631 67.8392 16.1702 67.5506 16.1702C66.9912 16.1702 66.5027 16.3951 66.0513 16.8299C65.439 17.4705 64.8602 18.6401 64.3382 20.3725L63.2542 23.9913H59.012L62.2438 13.2102Z" fill="white"/>
<path id="Fill-17" fill-rule="evenodd" clip-rule="evenodd" d="M79.0469 9.10156L77.8199 13.2102H80.1296L79.2276 16.2263H76.8998L75.762 20.0529C75.6171 20.5048 75.5814 20.8064 75.6171 20.9571C75.6893 21.1839 75.8883 21.3159 76.2479 21.3159C76.5561 21.3159 77.0243 21.2214 77.6393 21.0324L77.0798 23.8978C75.9791 24.1229 74.9678 24.237 74.0666 24.237C73.002 24.237 72.2606 24.1058 71.8457 23.8403C71.4299 23.5776 71.1783 23.1626 71.1056 22.6348C71.0146 22.089 71.1603 21.2213 71.5392 20.0146L72.6746 16.2263H71.1056L72.0078 13.2102H73.5777L74.1737 11.2127L79.0469 9.10156Z" fill="white"/>
</g>
</g>
<defs>
<clipPath id="clip0_764_2314">
<rect width="95.5403" height="37.7509" fill="white" transform="translate(0 0.624512)"/>
</clipPath>
</defs>
</svg>
