<svg width="73" height="53" viewBox="0 0 73 53" fill="none" xmlns="http://www.w3.org/2000/svg">
<g id="IAAI Logo">
<g id="Group">
<g id="Group_2">
<g id="Icon__x26__Registration_2_">
<g id="Icon_2_">
<path id="Vector" d="M11.3398 41.495H16.8498L32.1898 11.505H26.6898L11.3398 41.495Z" fill="#C90107"/>
<path id="Vector_2" d="M53.0898 41.495H58.5398L43.4598 11.505H42.7198H37.2998V41.495H42.7798V35.335H49.9398L53.0898 41.495ZM47.7198 30.945H42.7898V21.275L47.7198 30.945Z" fill="#C90107"/>
<path id="Vector_3" d="M32.5799 21.285L27.6599 30.975H32.5799V21.285Z" fill="#C90107"/>
<path id="Vector_4" d="M22.3198 41.505H32.5998V35.445H25.3898L22.3198 41.505Z" fill="#C90107"/>
</g>
<path id="Registration_2_" d="M60.1598 37.235C61.0298 37.235 61.7198 37.945 61.7198 38.825C61.7198 39.725 61.0298 40.425 60.1498 40.425C59.2798 40.425 58.5698 39.725 58.5698 38.825C58.5798 37.935 59.2798 37.235 60.1598 37.235ZM60.1598 37.475C59.4598 37.475 58.8798 38.075 58.8798 38.825C58.8798 39.585 59.4498 40.175 60.1598 40.175C60.8698 40.185 61.4398 39.575 61.4398 38.835C61.4398 38.085 60.8698 37.475 60.1598 37.475ZM59.8498 39.755H59.5698V37.975C59.7198 37.955 59.8598 37.935 60.0698 37.935C60.3398 37.935 60.5198 37.995 60.6198 38.075C60.7198 38.155 60.7798 38.275 60.7798 38.445C60.7798 38.675 60.6198 38.825 60.4298 38.875V38.885C60.5898 38.915 60.6898 39.055 60.7298 39.315C60.7698 39.585 60.8198 39.695 60.8398 39.755H60.5398C60.4998 39.695 60.4598 39.535 60.4198 39.305C60.3798 39.075 60.2698 38.995 60.0398 38.995H59.8398V39.755H59.8498ZM59.8498 38.765H60.0598C60.2898 38.765 60.4898 38.685 60.4898 38.465C60.4898 38.305 60.3798 38.155 60.0598 38.155C59.9698 38.155 59.8998 38.165 59.8498 38.165V38.765Z" fill="#C90107"/>
</g>
</g>
</g>
</g>
</svg>
