<svg width="87" height="24" viewBox="0 0 87 24" fill="none" xmlns="http://www.w3.org/2000/svg">
<path d="M2.31179 10.5H0.34304L3.92756 0.318182H6.20455L9.79403 10.5H7.82528L5.10582 2.40625H5.02628L2.31179 10.5ZM2.37642 6.50781H7.74574V7.98935H2.37642V6.50781ZM17.5534 0.318182H19.3979V6.97017C19.3979 7.69934 19.2256 8.34067 18.8809 8.89418C18.5395 9.44768 18.0589 9.88021 17.4391 10.1918C16.8193 10.5 16.0951 10.6541 15.2665 10.6541C14.4346 10.6541 13.7087 10.5 13.089 10.1918C12.4692 9.88021 11.9886 9.44768 11.6472 8.89418C11.3058 8.34067 11.1351 7.69934 11.1351 6.97017V0.318182H12.9796V6.81605C12.9796 7.24029 13.0724 7.61813 13.258 7.94957C13.4469 8.28101 13.7121 8.54119 14.0534 8.73011C14.3948 8.91572 14.7992 9.00852 15.2665 9.00852C15.7338 9.00852 16.1382 8.91572 16.4796 8.73011C16.8243 8.54119 17.0894 8.28101 17.275 7.94957C17.4606 7.61813 17.5534 7.24029 17.5534 6.81605V0.318182ZM20.9553 1.86435V0.318182H29.0788V1.86435H25.9318V10.5H24.1023V1.86435H20.9553ZM39.2917 5.40909C39.2917 6.50616 39.0862 7.44579 38.6752 8.22798C38.2676 9.00687 37.7108 9.60346 37.0048 10.0178C36.3021 10.4321 35.505 10.6392 34.6135 10.6392C33.7219 10.6392 32.9231 10.4321 32.2172 10.0178C31.5145 9.60014 30.9577 9.00189 30.5467 8.22301C30.139 7.44081 29.9352 6.50284 29.9352 5.40909C29.9352 4.31203 30.139 3.37405 30.5467 2.59517C30.9577 1.81297 31.5145 1.21473 32.2172 0.800426C32.9231 0.386126 33.7219 0.178977 34.6135 0.178977C35.505 0.178977 36.3021 0.386126 37.0048 0.800426C37.7108 1.21473 38.2676 1.81297 38.6752 2.59517C39.0862 3.37405 39.2917 4.31203 39.2917 5.40909ZM37.4373 5.40909C37.4373 4.63684 37.3163 3.98556 37.0744 3.45526C36.8358 2.92164 36.5043 2.51894 36.0801 2.24716C35.6558 1.97206 35.167 1.83452 34.6135 1.83452C34.06 1.83452 33.5711 1.97206 33.1468 2.24716C32.7226 2.51894 32.3895 2.92164 32.1475 3.45526C31.9089 3.98556 31.7896 4.63684 31.7896 5.40909C31.7896 6.18134 31.9089 6.83428 32.1475 7.3679C32.3895 7.8982 32.7226 8.3009 33.1468 8.57599C33.5711 8.84777 34.06 8.98366 34.6135 8.98366C35.167 8.98366 35.6558 8.84777 36.0801 8.57599C36.5043 8.3009 36.8358 7.8982 37.0744 7.3679C37.3163 6.83428 37.4373 6.18134 37.4373 5.40909ZM1.00426 23.5V13.3182H4.82244C5.60464 13.3182 6.26089 13.464 6.79119 13.7557C7.32481 14.0473 7.72751 14.4484 7.99929 14.9588C8.27438 15.4659 8.41193 16.0426 8.41193 16.6889C8.41193 17.3419 8.27438 17.9219 7.99929 18.429C7.7242 18.9361 7.31818 19.3355 6.78125 19.6271C6.24432 19.9155 5.5831 20.0597 4.79759 20.0597H2.26705V18.5433H4.54901C5.00639 18.5433 5.38092 18.4638 5.67259 18.3047C5.96425 18.1456 6.17969 17.9268 6.31889 17.6484C6.46141 17.37 6.53267 17.0502 6.53267 16.6889C6.53267 16.3277 6.46141 16.0095 6.31889 15.7344C6.17969 15.4593 5.9626 15.2455 5.66761 15.093C5.37595 14.9373 4.99976 14.8594 4.53906 14.8594H2.84872V23.5H1.00426ZM10.014 23.5V13.3182H11.8585V21.9538H16.3429V23.5H10.014ZM19.6341 23.5H17.6653L21.2498 13.3182H23.5268L27.1163 23.5H25.1475L22.4281 15.4062H22.3485L19.6341 23.5ZM19.6987 19.5078H25.068V20.9893H19.6987V19.5078ZM26.7795 14.8643V13.3182H34.9031V14.8643H31.756V23.5H29.9265V14.8643H26.7795ZM36.4691 23.5V13.3182H42.9918V14.8643H38.3136V17.6286H42.5444V19.1747H38.3136V23.5H36.4691ZM53.7702 18.4091C53.7702 19.5062 53.5647 20.4458 53.1538 21.228C52.7461 22.0069 52.1893 22.6035 51.4833 23.0178C50.7807 23.4321 49.9835 23.6392 49.092 23.6392C48.2004 23.6392 47.4016 23.4321 46.6957 23.0178C45.993 22.6001 45.4362 22.0019 45.0252 21.223C44.6175 20.4408 44.4137 19.5028 44.4137 18.4091C44.4137 17.312 44.6175 16.3741 45.0252 15.5952C45.4362 14.813 45.993 14.2147 46.6957 13.8004C47.4016 13.3861 48.2004 13.179 49.092 13.179C49.9835 13.179 50.7807 13.3861 51.4833 13.8004C52.1893 14.2147 52.7461 14.813 53.1538 15.5952C53.5647 16.3741 53.7702 17.312 53.7702 18.4091ZM51.9158 18.4091C51.9158 17.6368 51.7949 16.9856 51.5529 16.4553C51.3143 15.9216 50.9828 15.5189 50.5586 15.2472C50.1344 14.9721 49.6455 14.8345 49.092 14.8345C48.5385 14.8345 48.0496 14.9721 47.6254 15.2472C47.2011 15.5189 46.868 15.9216 46.6261 16.4553C46.3874 16.9856 46.2681 17.6368 46.2681 18.4091C46.2681 19.1813 46.3874 19.8343 46.6261 20.3679C46.868 20.8982 47.2011 21.3009 47.6254 21.576C48.0496 21.8478 48.5385 21.9837 49.092 21.9837C49.6455 21.9837 50.1344 21.8478 50.5586 21.576C50.9828 21.3009 51.3143 20.8982 51.5529 20.3679C51.7949 19.8343 51.9158 19.1813 51.9158 18.4091ZM55.514 23.5V13.3182H59.3322C60.1144 13.3182 60.7707 13.4541 61.301 13.7259C61.8346 13.9976 62.2373 14.3788 62.5091 14.8693C62.7842 15.3565 62.9217 15.925 62.9217 16.5746C62.9217 17.2275 62.7825 17.7943 62.5041 18.2749C62.229 18.7521 61.823 19.1217 61.286 19.3835C60.7491 19.642 60.0895 19.7713 59.3074 19.7713H56.5879V18.2401H59.0588C59.5162 18.2401 59.8907 18.1771 60.1824 18.0511C60.474 17.9219 60.6895 17.7346 60.8287 17.4893C60.9712 17.2408 61.0424 16.9358 61.0424 16.5746C61.0424 16.2133 60.9712 15.9051 60.8287 15.6499C60.6861 15.3913 60.469 15.1958 60.1774 15.0632C59.8857 14.9273 59.5095 14.8594 59.0488 14.8594H57.3585V23.5H55.514ZM60.774 18.8864L63.2946 23.5H61.2363L58.7605 18.8864H60.774ZM64.6195 13.3182H66.8766L69.8993 20.696H70.0186L73.0414 13.3182H75.2985V23.5H73.5286V16.505H73.4341L70.6202 23.4702H69.2978L66.4838 16.4901H66.3894V23.5H64.6195V13.3182ZM78.6145 23.5H76.6458L80.2303 13.3182H82.5073L86.0968 23.5H84.128L81.4086 15.4062H81.329L78.6145 23.5ZM78.6792 19.5078H84.0485V20.9893H78.6792V19.5078Z" fill="#111928"/>
</svg>
