<svg width="213" height="30" viewBox="0 0 213 30" fill="none" xmlns="http://www.w3.org/2000/svg">
<path d="M18.4077 3.35951C20.2353 3.83992 21.2901 4.9574 22.3867 7.58921C23.1909 9.53174 23.5355 10.3464 25.2483 14.4298C27.3579 19.4533 28.2665 21.6569 28.5067 22.2626C28.6216 22.5446 28.8201 23.0459 28.9558 23.3592C29.7913 25.2913 30.1569 26.4715 29.9375 26.5028C29.8853 26.5132 29.3047 26.6281 29.3047 26.6281C29.3047 26.6281 27.4937 26.7012 25.8018 26.7012C23.4207 26.7012 22.6583 26.6699 22.3867 26.555C22.0003 26.3984 21.593 25.897 21.3841 25.3435C21.311 25.1451 21.1021 24.6229 20.9142 24.1947C20.7262 23.7665 20.3815 22.9624 20.1518 22.4193C19.922 21.8762 19.1492 20.0381 18.4285 18.3462C17.0082 14.9938 15.003 10.2524 14.533 9.12444C14.3659 8.73802 14.1884 8.40382 14.1362 8.39338C14.0944 8.38294 13.7811 9.05133 13.4364 9.88683C13.1022 10.7223 12.0265 13.3019 11.0553 15.6309L9.29028 19.8606L11.9743 19.9128C13.7184 19.9441 14.721 20.0068 14.8568 20.0903C15.2641 20.3201 15.5252 20.7065 15.9534 21.7404C16.204 22.3148 16.6949 23.4845 17.0604 24.3514C17.4259 25.2078 17.7288 26.0433 17.7288 26.1999C17.7288 26.837 17.9377 26.8161 10.2511 26.7848C3.4209 26.7534 3.2538 26.743 2.6794 26.5237C1.07106 25.9179 0.152014 24.7796 0.0162452 23.2339C-0.0673046 22.294 0.162457 21.3749 0.914406 19.5995C1.26949 18.764 1.73946 17.657 1.95878 17.1452C2.8465 15.0356 5.06057 9.82417 5.79163 8.1114C6.21982 7.1088 6.73156 5.99133 6.94044 5.6258C7.37908 4.83208 8.07881 4.13235 8.27724 4.03835C8.27724 4.03835 8.64277 3.62061 9.42605 3.46395L10.1049 3.35951C10.1049 3.35951 11.7654 3.20286 14.1048 3.20286C17.0813 3.20286 17.9064 3.23419 18.4077 3.35951Z" fill="url(#paint0_linear_1195_4517)"/>
<path d="M43.34 7.8H46.14L51.36 22H48.52L47.2 18.46H42.24L40.94 22H38.1L43.34 7.8ZM46.7 16.52L44.74 10.66L42.7 16.52H46.7ZM58.3711 22.1C57.2378 22.1 56.2711 21.9133 55.4711 21.54C54.6844 21.1533 54.0444 20.6267 53.5511 19.96C53.0711 19.2933 52.7178 18.54 52.4911 17.7C52.2644 16.8467 52.1511 15.96 52.1511 15.04V7.8H54.9111V15.04C54.9111 15.6267 54.9644 16.2 55.0711 16.76C55.1911 17.3067 55.3844 17.8 55.6511 18.24C55.9178 18.68 56.2711 19.0267 56.7111 19.28C57.1511 19.5333 57.6978 19.66 58.3511 19.66C59.0178 19.66 59.5711 19.5333 60.0111 19.28C60.4644 19.0133 60.8178 18.66 61.0711 18.22C61.3378 17.78 61.5311 17.2867 61.6511 16.74C61.7711 16.18 61.8311 15.6133 61.8311 15.04V7.8H64.5711V15.04C64.5711 16.0133 64.4511 16.9267 64.2111 17.78C63.9844 18.6333 63.6178 19.3867 63.1111 20.04C62.6178 20.68 61.9778 21.1867 61.1911 21.56C60.4044 21.92 59.4644 22.1 58.3711 22.1ZM77.9711 10.22H73.4311V22H70.6911V10.22H66.1511V7.8H77.9711V10.22ZM85.4619 22.1C84.4219 22.1 83.4752 21.9 82.6219 21.5C81.7819 21.1 81.0552 20.56 80.4419 19.88C79.8419 19.1867 79.3752 18.4133 79.0419 17.56C78.7085 16.6933 78.5419 15.8067 78.5419 14.9C78.5419 13.9533 78.7152 13.0533 79.0619 12.2C79.4219 11.3333 79.9085 10.5667 80.5219 9.9C81.1485 9.22 81.8819 8.68667 82.7219 8.3C83.5752 7.9 84.5085 7.7 85.5219 7.7C86.5485 7.7 87.4819 7.90667 88.3219 8.32C89.1752 8.73333 89.9019 9.28667 90.5019 9.98C91.1019 10.6733 91.5685 11.4467 91.9019 12.3C92.2352 13.1533 92.4019 14.0333 92.4019 14.94C92.4019 15.8733 92.2285 16.7733 91.8819 17.64C91.5352 18.4933 91.0485 19.26 90.4219 19.94C89.8085 20.6067 89.0752 21.1333 88.2219 21.52C87.3819 21.9067 86.4619 22.1 85.4619 22.1ZM81.3419 14.9C81.3419 15.5133 81.4352 16.1067 81.6219 16.68C81.8085 17.2533 82.0752 17.7667 82.4219 18.22C82.7819 18.66 83.2152 19.0133 83.7219 19.28C84.2419 19.5333 84.8285 19.66 85.4819 19.66C86.1485 19.66 86.7419 19.5267 87.2619 19.26C87.7819 18.98 88.2152 18.6133 88.5619 18.16C88.9085 17.6933 89.1685 17.18 89.3419 16.62C89.5285 16.0467 89.6219 15.4733 89.6219 14.9C89.6219 14.2867 89.5219 13.7 89.3219 13.14C89.1352 12.5667 88.8619 12.06 88.5019 11.62C88.1552 11.1667 87.7219 10.8133 87.2019 10.56C86.6952 10.2933 86.1219 10.16 85.4819 10.16C84.8019 10.16 84.2019 10.3 83.6819 10.58C83.1752 10.8467 82.7485 11.2067 82.4019 11.66C82.0552 12.1133 81.7885 12.62 81.6019 13.18C81.4285 13.74 81.3419 14.3133 81.3419 14.9ZM94.5191 22V7.8H100.539C101.192 7.8 101.792 7.93333 102.339 8.2C102.886 8.46667 103.359 8.82667 103.759 9.28C104.172 9.73333 104.492 10.24 104.719 10.8C104.946 11.36 105.059 11.9333 105.059 12.52C105.059 13.32 104.872 14.08 104.499 14.8C104.126 15.52 103.612 16.1067 102.959 16.56C102.306 17.0133 101.532 17.24 100.639 17.24H97.2791V22H94.5191ZM97.2791 14.82H100.479C100.812 14.82 101.112 14.7267 101.379 14.54C101.646 14.3533 101.859 14.0867 102.019 13.74C102.179 13.38 102.259 12.9733 102.259 12.52C102.259 12.0267 102.166 11.6067 101.979 11.26C101.806 10.9133 101.572 10.6533 101.279 10.48C100.999 10.3067 100.692 10.22 100.359 10.22H97.2791V14.82ZM106.98 22V7.8H109.74V19.58H116.98V22H106.98ZM122.52 7.8H125.32L130.54 22H127.7L126.38 18.46H121.42L120.12 22H117.28L122.52 7.8ZM125.88 16.52L123.92 10.66L121.88 16.52H125.88ZM141.389 10.22H136.849V22H134.109V10.22H129.569V7.8H141.389V10.22ZM143.152 22V7.8H152.692V10.22H145.912V13.88H151.552V16.12H145.912V22H143.152ZM160.481 22.1C159.441 22.1 158.495 21.9 157.641 21.5C156.801 21.1 156.075 20.56 155.461 19.88C154.861 19.1867 154.395 18.4133 154.061 17.56C153.728 16.6933 153.561 15.8067 153.561 14.9C153.561 13.9533 153.735 13.0533 154.081 12.2C154.441 11.3333 154.928 10.5667 155.541 9.9C156.168 9.22 156.901 8.68667 157.741 8.3C158.595 7.9 159.528 7.7 160.541 7.7C161.568 7.7 162.501 7.90667 163.341 8.32C164.195 8.73333 164.921 9.28667 165.521 9.98C166.121 10.6733 166.588 11.4467 166.921 12.3C167.255 13.1533 167.421 14.0333 167.421 14.94C167.421 15.8733 167.248 16.7733 166.901 17.64C166.555 18.4933 166.068 19.26 165.441 19.94C164.828 20.6067 164.095 21.1333 163.241 21.52C162.401 21.9067 161.481 22.1 160.481 22.1ZM156.361 14.9C156.361 15.5133 156.455 16.1067 156.641 16.68C156.828 17.2533 157.095 17.7667 157.441 18.22C157.801 18.66 158.235 19.0133 158.741 19.28C159.261 19.5333 159.848 19.66 160.501 19.66C161.168 19.66 161.761 19.5267 162.281 19.26C162.801 18.98 163.235 18.6133 163.581 18.16C163.928 17.6933 164.188 17.18 164.361 16.62C164.548 16.0467 164.641 15.4733 164.641 14.9C164.641 14.2867 164.541 13.7 164.341 13.14C164.155 12.5667 163.881 12.06 163.521 11.62C163.175 11.1667 162.741 10.8133 162.221 10.56C161.715 10.2933 161.141 10.16 160.501 10.16C159.821 10.16 159.221 10.3 158.701 10.58C158.195 10.8467 157.768 11.2067 157.421 11.66C157.075 12.1133 156.808 12.62 156.621 13.18C156.448 13.74 156.361 14.3133 156.361 14.9ZM169.539 22V7.8H175.819C176.472 7.8 177.072 7.93333 177.619 8.2C178.179 8.46667 178.659 8.82667 179.059 9.28C179.472 9.73333 179.785 10.24 179.999 10.8C180.225 11.36 180.339 11.9333 180.339 12.52C180.339 13.12 180.232 13.7 180.019 14.26C179.819 14.8067 179.525 15.2867 179.139 15.7C178.752 16.1133 178.299 16.4333 177.779 16.66L181.019 22H177.979L175.059 17.24H172.299V22H169.539ZM172.299 14.82H175.759C176.105 14.82 176.412 14.72 176.679 14.52C176.945 14.3067 177.159 14.0267 177.319 13.68C177.479 13.3333 177.559 12.9467 177.559 12.52C177.559 12.0667 177.465 11.6733 177.279 11.34C177.092 10.9933 176.852 10.72 176.559 10.52C176.279 10.32 175.972 10.22 175.639 10.22H172.299V14.82ZM194.419 22V12.68L190.779 19.62H189.239L185.599 12.68V22H182.839V7.8H185.799L189.999 15.88L194.239 7.8H197.179V22H194.419ZM204.004 7.8H206.804L212.024 22H209.184L207.864 18.46H202.904L201.604 22H198.764L204.004 7.8ZM207.364 16.52L205.404 10.66L203.364 16.52H207.364Z" fill="#111928"/>
<defs>
<linearGradient id="paint0_linear_1195_4517" x1="-5.19515" y1="36.5705" x2="42.1149" y2="-8.85974" gradientUnits="userSpaceOnUse">
<stop stop-color="#0B7FFA" stop-opacity="0.4047"/>
<stop offset="0.466217" stop-color="#1C64F2"/>
<stop offset="1" stop-color="#0092FF" stop-opacity="0"/>
</linearGradient>
</defs>
</svg>
