<svg id="Шар_1" data-name="Шар 1" xmlns="http://www.w3.org/2000/svg" xmlns:xlink="http://www.w3.org/1999/xlink" width="30" height="23.59" viewBox="0 0 30 23.59"><defs><style>.cls-1{fill:url(#Градієнт_без_назви);}</style><linearGradient id="Градієнт_без_назви" x1="-4.19" y1="-8.82" x2="43.12" y2="36.61" gradientTransform="matrix(1, 0, 0, -1, 0, 25.59)" gradientUnits="userSpaceOnUse"><stop offset="0" stop-color="#0b7ffa" stop-opacity="0.4"/><stop offset="0.47" stop-color="#1c64f2"/><stop offset="1" stop-color="#0092ff" stop-opacity="0"/></linearGradient></defs><path class="cls-1" d="M18.41.16c1.83.48,2.88,1.59,4,4.23.8,1.94,1.15,2.75,2.86,6.84,2.11,5,3,7.22,3.26,7.83.11.28.31.78.45,1.1.83,1.93,1.2,3.11,1,3.14l-.64.13s-1.81.07-3.5.07a14.43,14.43,0,0,1-3.41-.15,2.16,2.16,0,0,1-1-1.21c-.07-.2-.28-.72-.47-1.15s-.53-1.23-.76-1.77l-1.72-4.08C17,11.79,15,7.05,14.53,5.92a2.62,2.62,0,0,0-.39-.73,8,8,0,0,0-.7,1.49c-.34.84-1.41,3.42-2.38,5.75L9.29,16.66l2.68.05a14.5,14.5,0,0,1,2.89.18c.4.23.67.61,1.09,1.65.25.57.74,1.74,1.11,2.61A10.46,10.46,0,0,1,17.73,23c0,.63.21.61-7.48.58-6.83,0-7,0-7.57-.26A3.74,3.74,0,0,1,0,20,7.35,7.35,0,0,1,.91,16.4l1-2.46c.89-2.11,3.1-7.32,3.83-9,.43-1,.94-2.12,1.15-2.49A5,5,0,0,1,8.28.84,2.13,2.13,0,0,1,9.43.26l.67-.1S11.77,0,14.1,0A22.83,22.83,0,0,1,18.41.16Z"/></svg>