<svg width="250" height="32" viewBox="0 0 250 32" fill="none" xmlns="http://www.w3.org/2000/svg">
<path d="M19.0212 3.97149C20.9098 4.46791 21.9998 5.62264 23.1329 8.34218C23.9639 10.3495 24.32 11.1912 26.0899 15.4108C28.2699 20.6017 29.2088 22.8788 29.457 23.5047C29.5757 23.7961 29.7807 24.3141 29.921 24.6378C30.7844 26.6343 31.1621 27.8538 30.9355 27.8862C30.8815 27.897 30.6441 27.9078 30.4174 27.9186C30.18 27.9186 29.9534 27.9617 29.9102 28.0157C29.8671 28.0589 28.4102 28.0912 26.6619 28.0912C24.2013 28.0912 23.4135 28.0589 23.1329 27.9402C22.7336 27.7783 22.3128 27.2603 22.0969 26.6883C22.0214 26.4833 21.8055 25.9437 21.6113 25.5012C21.417 25.0587 21.0609 24.2278 20.8235 23.6666C20.5861 23.1054 19.7875 21.206 19.0428 19.4578C17.5751 15.9936 15.5031 11.0941 15.0175 9.92858C14.8448 9.52928 14.6613 9.18394 14.6074 9.17315C14.5642 9.16236 14.2405 9.85303 13.8843 10.7164C13.539 11.5797 12.4274 14.2453 11.4238 16.6519L9.59995 21.0226L12.3735 21.0765C14.1757 21.1089 15.2117 21.1737 15.352 21.26C15.7729 21.4974 16.0427 21.8967 16.4852 22.9651C16.7442 23.5587 17.2514 24.7674 17.6291 25.6631C18.0068 26.548 18.3198 27.4114 18.3198 27.5732C18.3198 28.2315 18.5356 28.21 10.5928 28.1776C3.53493 28.1452 3.36226 28.1344 2.76871 27.9078C1.10676 27.2819 0.157081 26.1055 0.0167867 24.5083C-0.0695481 23.5371 0.167872 22.5874 0.944886 20.7528C1.31181 19.8894 1.79744 18.7455 2.02407 18.2167C2.94138 16.0368 5.22925 10.6516 5.98468 8.88177C6.42715 7.84575 6.95595 6.69103 7.17179 6.31331C7.62504 5.49313 8.3481 4.77008 8.55314 4.67296C8.55314 4.67296 8.93086 4.24128 9.74025 4.07941L10.4417 3.97149C10.4417 3.97149 12.1576 3.80961 14.575 3.80961C17.6507 3.80961 18.5032 3.84199 19.0212 3.97149Z" fill="white"/>
<path d="M47.408 6.96H50.768L57.032 24H53.624L52.04 19.752H46.088L44.528 24H41.12L47.408 6.96ZM51.44 17.424L49.088 10.392L46.64 17.424H51.44ZM65.4453 24.12C64.0853 24.12 62.9253 23.896 61.9653 23.448C61.0213 22.984 60.2533 22.352 59.6613 21.552C59.0853 20.752 58.6613 19.848 58.3893 18.84C58.1173 17.816 57.9813 16.752 57.9813 15.648V6.96H61.2933V15.648C61.2933 16.352 61.3573 17.04 61.4853 17.712C61.6293 18.368 61.8613 18.96 62.1813 19.488C62.5013 20.016 62.9253 20.432 63.4533 20.736C63.9813 21.04 64.6373 21.192 65.4213 21.192C66.2213 21.192 66.8853 21.04 67.4133 20.736C67.9573 20.416 68.3813 19.992 68.6853 19.464C69.0053 18.936 69.2373 18.344 69.3813 17.688C69.5253 17.016 69.5973 16.336 69.5973 15.648V6.96H72.8853V15.648C72.8853 16.816 72.7413 17.912 72.4533 18.936C72.1813 19.96 71.7413 20.864 71.1333 21.648C70.5413 22.416 69.7733 23.024 68.8293 23.472C67.8853 23.904 66.7573 24.12 65.4453 24.12ZM88.9653 9.864H83.5173V24H80.2293V9.864H74.7813V6.96H88.9653V9.864ZM97.9543 24.12C96.7063 24.12 95.5703 23.88 94.5463 23.4C93.5383 22.92 92.6663 22.272 91.9303 21.456C91.2103 20.624 90.6503 19.696 90.2503 18.672C89.8503 17.632 89.6503 16.568 89.6503 15.48C89.6503 14.344 89.8583 13.264 90.2743 12.24C90.7063 11.2 91.2903 10.28 92.0263 9.48C92.7783 8.664 93.6583 8.024 94.6663 7.56C95.6903 7.08 96.8103 6.84 98.0263 6.84C99.2583 6.84 100.378 7.088 101.386 7.584C102.41 8.08 103.282 8.744 104.002 9.576C104.722 10.408 105.282 11.336 105.682 12.36C106.082 13.384 106.282 14.44 106.282 15.528C106.282 16.648 106.074 17.728 105.658 18.768C105.242 19.792 104.658 20.712 103.906 21.528C103.17 22.328 102.29 22.96 101.266 23.424C100.258 23.888 99.1543 24.12 97.9543 24.12ZM93.0103 15.48C93.0103 16.216 93.1223 16.928 93.3463 17.616C93.5703 18.304 93.8903 18.92 94.3063 19.464C94.7383 19.992 95.2583 20.416 95.8663 20.736C96.4903 21.04 97.1943 21.192 97.9783 21.192C98.7783 21.192 99.4903 21.032 100.114 20.712C100.738 20.376 101.258 19.936 101.674 19.392C102.09 18.832 102.402 18.216 102.61 17.544C102.834 16.856 102.946 16.168 102.946 15.48C102.946 14.744 102.826 14.04 102.586 13.368C102.362 12.68 102.034 12.072 101.602 11.544C101.186 11 100.666 10.576 100.042 10.272C99.4343 9.952 98.7463 9.792 97.9783 9.792C97.1623 9.792 96.4423 9.96 95.8183 10.296C95.2103 10.616 94.6983 11.048 94.2823 11.592C93.8663 12.136 93.5463 12.744 93.3223 13.416C93.1143 14.088 93.0103 14.776 93.0103 15.48ZM108.823 24V6.96H116.047C116.831 6.96 117.551 7.12 118.207 7.44C118.863 7.76 119.431 8.192 119.911 8.736C120.407 9.28 120.791 9.888 121.063 10.56C121.335 11.232 121.471 11.92 121.471 12.624C121.471 13.584 121.247 14.496 120.799 15.36C120.351 16.224 119.735 16.928 118.951 17.472C118.167 18.016 117.239 18.288 116.167 18.288H112.135V24H108.823ZM112.135 15.384H115.975C116.375 15.384 116.735 15.272 117.055 15.048C117.375 14.824 117.631 14.504 117.823 14.088C118.015 13.656 118.111 13.168 118.111 12.624C118.111 12.032 117.999 11.528 117.775 11.112C117.567 10.696 117.287 10.384 116.935 10.176C116.599 9.968 116.231 9.864 115.831 9.864H112.135V15.384ZM123.776 24V6.96H127.088V21.096H135.776V24H123.776ZM142.424 6.96H145.784L152.048 24H148.64L147.056 19.752H141.104L139.544 24H136.136L142.424 6.96ZM146.456 17.424L144.104 10.392L141.656 17.424H146.456ZM165.067 9.864H159.619V24H156.331V9.864H150.883V6.96H165.067V9.864ZM167.182 24V6.96H178.63V9.864H170.494V14.256H177.262V16.944H170.494V24H167.182ZM187.978 24.12C186.73 24.12 185.594 23.88 184.57 23.4C183.562 22.92 182.69 22.272 181.954 21.456C181.234 20.624 180.674 19.696 180.274 18.672C179.874 17.632 179.674 16.568 179.674 15.48C179.674 14.344 179.882 13.264 180.298 12.24C180.73 11.2 181.314 10.28 182.05 9.48C182.802 8.664 183.682 8.024 184.69 7.56C185.714 7.08 186.834 6.84 188.05 6.84C189.282 6.84 190.402 7.088 191.41 7.584C192.434 8.08 193.306 8.744 194.026 9.576C194.746 10.408 195.306 11.336 195.706 12.36C196.106 13.384 196.306 14.44 196.306 15.528C196.306 16.648 196.098 17.728 195.682 18.768C195.266 19.792 194.682 20.712 193.93 21.528C193.194 22.328 192.314 22.96 191.29 23.424C190.282 23.888 189.178 24.12 187.978 24.12ZM183.034 15.48C183.034 16.216 183.146 16.928 183.37 17.616C183.594 18.304 183.914 18.92 184.33 19.464C184.762 19.992 185.282 20.416 185.89 20.736C186.514 21.04 187.218 21.192 188.002 21.192C188.802 21.192 189.514 21.032 190.138 20.712C190.762 20.376 191.282 19.936 191.698 19.392C192.114 18.832 192.426 18.216 192.634 17.544C192.858 16.856 192.97 16.168 192.97 15.48C192.97 14.744 192.85 14.04 192.61 13.368C192.386 12.68 192.058 12.072 191.626 11.544C191.21 11 190.69 10.576 190.066 10.272C189.458 9.952 188.77 9.792 188.002 9.792C187.186 9.792 186.466 9.96 185.842 10.296C185.234 10.616 184.722 11.048 184.306 11.592C183.89 12.136 183.57 12.744 183.346 13.416C183.138 14.088 183.034 14.776 183.034 15.48ZM198.846 24V6.96H206.382C207.166 6.96 207.886 7.12 208.542 7.44C209.214 7.76 209.79 8.192 210.27 8.736C210.766 9.28 211.142 9.888 211.398 10.56C211.67 11.232 211.806 11.92 211.806 12.624C211.806 13.344 211.678 14.04 211.422 14.712C211.182 15.368 210.83 15.944 210.366 16.44C209.902 16.936 209.358 17.32 208.734 17.592L212.622 24H208.974L205.47 18.288H202.158V24H198.846ZM202.158 15.384H206.31C206.726 15.384 207.094 15.264 207.414 15.024C207.734 14.768 207.99 14.432 208.182 14.016C208.374 13.6 208.47 13.136 208.47 12.624C208.47 12.08 208.358 11.608 208.134 11.208C207.91 10.792 207.622 10.464 207.27 10.224C206.934 9.984 206.566 9.864 206.166 9.864H202.158V15.384ZM228.703 24V12.816L224.335 21.144H222.487L218.119 12.816V24H214.807V6.96H218.359L223.399 16.656L228.487 6.96H232.015V24H228.703ZM240.205 6.96H243.565L249.829 24H246.421L244.837 19.752H238.885L237.325 24H233.917L240.205 6.96ZM244.237 17.424L241.885 10.392L239.437 17.424H244.237Z" fill="white"/>
</svg>
