<svg width="167" height="51" viewBox="0 0 167 51" fill="none" xmlns="http://www.w3.org/2000/svg">
<g id="lotte_logo 1" clip-path="url(#clip0_764_2329)">
<g id="g137">
<g id="g139">
<g id="Clip path group">
<mask id="mask0_764_2329" style="mask-type:luminance" maskUnits="userSpaceOnUse" x="-28" y="-25" width="228" height="105">
<g id="clipPath145">
<path id="path143" d="M-27.3928 -24.5137H199.362V79.696H-27.3928V-24.5137Z" fill="white"/>
</g>
</mask>
<g mask="url(#mask0_764_2329)">
<g id="g141">
<g id="g147">
<path id="path149" d="M93.2821 33.1847C89.8748 33.1847 87.2792 29.8441 87.2792 25.7419C87.2792 21.6303 89.8748 18.3004 93.2821 18.3004C96.6953 18.3004 99.2849 21.6303 99.2849 25.7419C99.2849 29.8441 96.6953 33.1847 93.2821 33.1847ZM93.2821 16.2576C86.169 16.2576 81.9106 20.5003 81.9106 25.7419C81.9106 30.9806 86.169 35.2161 93.2821 35.2161C100.395 35.2161 104.665 30.9806 104.665 25.7419C104.665 20.5003 100.395 16.2576 93.2821 16.2576Z" fill="#E60013"/>
</g>
<g id="g151">
<path id="path153" d="M105.629 19.0531H113.122V34.4344H118.768V19.0531H125.085V16.9565H105.629V19.0531Z" fill="#E60013"/>
</g>
<g id="g155">
<path id="path157" d="M127.147 19.0531H133.46V34.4344H139.1V19.0531H146.597V16.9565H127.147V19.0531Z" fill="#E60013"/>
</g>
<g id="g159">
<path id="path161" d="M70.6759 31.3028V16.9563H65.2627V32.3511C65.2627 33.5027 66.2267 34.4341 67.4186 34.4341H81.2638V32.3411H71.7601C71.1645 32.3411 70.6759 31.8786 70.6759 31.3028Z" fill="#E60013"/>
</g>
<g id="g163">
<path id="path165" d="M156.167 19.0242H166.586V16.9562H151.821C150.63 16.9562 149.663 17.8819 149.663 19.0342V32.3511C149.663 33.5027 150.63 34.4327 151.821 34.4327H166.586V32.3662H156.167C155.564 32.3662 155.091 31.8958 155.091 31.3286V26.1781H166.417V24.1259H155.091V20.0589C155.091 19.4881 155.564 19.0242 156.167 19.0242Z" fill="#E60013"/>
</g>
<g id="g167">
<path id="path169" d="M37.1401 46.2537C31.2761 51.9154 21.6811 51.9154 15.8172 46.2537L4.98414 35.7942C-0.879806 30.1324 -0.879806 20.8676 4.98414 15.2058L15.8172 4.74632C21.6811 -0.915443 31.2761 -0.915443 37.1401 4.74632L47.9731 15.2058C53.837 20.8676 53.837 30.1324 47.9731 35.7942L37.1401 46.2537Z" fill="#E60013"/>
</g>
<g id="g171">
<path id="path173" d="M20.0536 40.8643C19.1921 40.8643 18.4903 40.2132 18.4547 39.3829C18.4376 38.9699 18.5869 38.5748 18.8765 38.2708C19.1661 37.9668 19.5612 37.7896 19.989 37.7732C20.8705 37.7323 21.6191 38.4006 21.6562 39.2546C21.6926 40.1064 21.0042 40.8277 20.1219 40.8629C20.0989 40.8636 20.0766 40.8643 20.0536 40.8643Z" fill="white"/>
</g>
<g id="g175">
<path id="path177" d="M25.8826 12.3129C25.0033 12.3129 24.2993 12.5782 23.7304 13.1246C22.5021 14.3034 21.8575 16.7371 21.9147 19.976C21.9837 23.9692 22.9692 31.8035 26.222 35.8376C26.7493 36.4901 27.3159 37.0121 27.9071 37.3886C28.4797 37.755 29.1228 38.1114 30.1261 38.1114C30.3979 38.1114 30.6905 38.0848 30.995 38.0318C32.8605 37.6001 35.1969 35.5953 36.9347 32.9272C37.1998 32.5206 37.6551 32.2782 38.1527 32.2782C38.4222 32.2782 38.6859 32.3514 38.9154 32.4912C39.2406 32.6884 39.4664 32.996 39.5518 33.3574C39.6372 33.7195 39.5719 34.0909 39.3669 34.4035C37.1694 37.7779 34.2686 40.1478 31.6062 40.7422C31.5973 40.7458 31.5683 40.7515 31.5401 40.7565C31.0515 40.8426 30.5717 40.887 30.115 40.887C28.398 40.887 27.1867 40.2553 26.3238 39.7053C25.4705 39.1604 24.6736 38.4326 23.9547 37.5427C19.3755 31.8645 19.0621 21.2186 19.0413 20.0233C18.9916 17.1902 19.4142 13.3519 21.706 11.1556C22.8244 10.0844 24.2258 9.54085 25.8707 9.54085L26.1381 9.54156C27.7875 9.54156 29.1904 10.0844 30.3081 11.1556C32.5999 13.3519 33.0224 17.1902 32.9734 20.0233C32.9214 22.9753 32.3607 28.6923 29.1911 33.8184C28.9327 34.235 28.4596 34.4939 27.9561 34.4939C27.6969 34.4939 27.4429 34.4258 27.2209 34.2981C26.5421 33.9066 26.3186 33.0526 26.7233 32.3951C28.9423 28.8085 30.0147 24.8619 30.0994 19.976C30.1566 16.7356 29.5112 14.3027 28.2829 13.1246C27.714 12.5782 27.0114 12.3129 26.1351 12.3129H25.8826Z" fill="white"/>
</g>
</g>
</g>
</g>
</g>
</g>
</g>
<defs>
<clipPath id="clip0_764_2329">
<rect width="166" height="50" fill="white" transform="translate(0.586182 0.5)"/>
</clipPath>
</defs>
</svg>
