<svg width="171" height="79" viewBox="0 0 171 79" fill="none" xmlns="http://www.w3.org/2000/svg">
<g id="Manheim 1">
<path id="Path_2262" d="M63.2001 48.9505L54.6112 33.6789H54.5585L53.6487 46.5587C53.541 48.0261 54.8243 48.3297 56.3391 48.39V48.9349H49.3359V48.39C51.8132 48.39 52.0973 47.921 52.2761 45.3326L53.0965 34.1927C53.2202 32.301 53.1675 31.7853 51.0638 31.6646V31.1644H56.1603L64.268 45.5875L72.3597 31.1644H77.3141V31.6782C75.6573 31.7989 75.034 31.83 75.0867 32.7973L76.1569 45.7685C76.37 48.4017 76.6381 48.4017 79.097 48.4017V48.9466H70.4347V48.4017C72.0205 48.4017 73.5719 48.0377 73.4299 46.51L72.4307 33.675H72.378L63.9839 48.931L63.2001 48.9505Z" fill="#1D1D1B"/>
<path id="Path_2263" d="M86.1528 43.6084C85.5112 43.912 84.8512 44.1844 84.1569 44.4102C82.0898 45.1225 81.3221 45.4086 81.3221 46.5743C81.3038 47.4968 82.1769 48.2539 83.2471 48.2695C83.2654 48.2695 83.2838 48.2695 83.2998 48.2695C83.8337 48.2695 84.2439 48.1332 86.1345 47.0142L86.1528 43.6084ZM79.4889 41.02C79.4362 40.8993 79.3995 40.7631 79.3995 40.6113C79.3995 39.6129 82.1975 37.2814 84.3883 37.2814C85.7793 37.2969 87.0787 37.8574 87.9174 38.7955C88.417 39.4008 88.4169 39.7647 88.4169 41.2477V45.0914C88.4169 47.3762 88.417 47.9055 89.3084 47.9055C89.9317 47.89 90.5206 47.6642 90.9469 47.2691L91.1256 47.6934C89.3084 48.9487 88.3642 49.2678 87.7753 49.2678C86.4026 49.2678 86.2606 47.9814 86.2422 47.528C83.9071 49.1628 83.2471 49.2678 82.3213 49.2678C80.8065 49.4488 79.4155 48.5419 79.2024 47.2555C79.1841 47.1504 79.1841 47.0278 79.1841 46.9227C79.1841 45.1828 81.0197 44.5776 83.1577 44.1222C84.2096 43.8945 85.2247 43.5169 86.1528 43.0323V40.7767C86.2766 40.1267 86.0635 39.4591 85.5822 38.9453C85.1193 38.4452 84.4227 38.1435 83.694 38.1124C82.6948 38.0968 81.8217 38.6885 81.6086 39.5195C81.6086 39.716 81.6613 39.897 81.769 40.0644L79.4889 41.02Z" fill="#1D1D1B"/>
<path id="Path_2264" d="M94.886 46.4536C94.886 48.0125 95.3306 48.3901 97.1501 48.3901V48.935H90.3784V48.3901C91.4646 48.5107 92.4821 47.8607 92.6242 46.9363C92.6425 46.8156 92.6425 46.695 92.6425 46.5723V40.5645C92.6425 39.5058 92.5004 39.3092 91.6273 39.1574L90.4861 38.9609V38.5074L94.3544 37.3125H94.8883V39.5369C97.1524 38.3264 99.0407 37.2657 100.698 37.2657C102.996 37.2657 104.298 38.704 104.298 41.5648C104.298 45.3793 104.066 46.1053 104.03 47.2263C103.993 47.9989 104.529 48.3764 105.936 48.3764H106.667V48.9369H99.4142V48.392C100.109 48.4232 100.805 48.2402 101.339 47.8471C101.981 47.3022 102.034 45.2139 102.034 41.415C102.034 39.1146 100.732 38.4023 99.3776 38.4023C97.7207 38.6903 96.1876 39.3248 94.886 40.2337V46.4536Z" fill="#1D1D1B"/>
<path id="Path_2265" d="M109.944 46.6813C109.944 48.0281 110.389 48.392 112.153 48.392V48.9369H105.4V48.392C107.254 48.3006 107.68 47.7556 107.68 46.1967V32.484C107.68 31.8476 107.538 31.6218 106.844 31.5459L105.382 31.365V30.8804L109.392 29.7146H109.926V39.099C111.564 38.0851 113.473 37.4643 115.485 37.2988C118.086 37.2988 119.227 38.6767 119.227 41.5668C119.227 44.1844 119.156 45.7744 119.049 47.3333C119.12 48.1059 119.619 48.4232 121.615 48.4232V48.9681H114.328V48.4232C115.006 48.4835 115.682 48.3181 116.216 47.9541C116.821 47.4403 116.966 46.2143 116.966 41.9463C116.966 38.8733 115.006 38.4802 113.883 38.4802C112.44 38.6164 111.067 39.0699 109.891 39.8269L109.944 46.6813Z" fill="#1D1D1B"/>
<path id="Path_2266" d="M130.511 40.9303C130.138 39.0678 128.783 37.8437 127.161 37.8437C126.056 37.8437 124.363 38.2835 123.579 40.9303H130.511ZM123.49 41.6718C123.4 42.065 123.366 42.4737 123.348 42.8823C123.116 45.4396 125.38 47.6641 128.392 47.8626C128.41 47.8626 128.428 47.8626 128.463 47.8626C130.156 47.8626 131.76 47.1659 132.757 46.0001L133.131 46.3485C131.74 48.0436 129.549 49.1179 127.124 49.2853C123.827 49.2853 121.278 46.7416 121.278 43.4136C121.047 40.2355 123.879 37.4953 127.64 37.2832C127.693 37.2832 127.748 37.2832 127.782 37.2832C132.326 37.2832 132.237 40.0682 133.341 41.0062V41.6563L123.49 41.6718Z" fill="#1D1D1B"/>
<path id="Path_2267" d="M136.873 30.7129C137.638 30.6682 138.28 31.1528 138.351 31.8028C138.298 32.4528 137.638 32.9374 136.873 32.8927C136.123 32.9238 135.466 32.4392 135.429 31.8028C135.466 31.1528 136.126 30.6682 136.873 30.7129ZM138.245 46.7708C138.245 47.7692 138.887 48.4056 140.686 48.4056V48.9505H133.202V48.4056C135.269 48.4056 136 47.8295 136 46.3174V40.5664C136 39.4474 135.839 39.3111 134.948 39.1593L133.362 38.9024V38.449L137.746 37.1626H138.245V46.7708Z" fill="#1D1D1B"/>
<path id="Path_2268" d="M144.909 46.6346C144.909 48.1176 145.372 48.4056 147.263 48.4056V48.9506H140.241V48.4056C142.201 48.4056 142.648 47.6641 142.648 46.2103V40.5956C142.648 39.4766 142.451 39.2177 141.667 39.1418L140.365 38.99V38.5054L144.41 37.2949H144.909V39.5953C146.637 38.4003 148.704 37.6122 150.916 37.3105C152.52 37.2794 153.893 38.2641 154.106 39.5953C155.852 38.4295 157.901 37.6589 160.075 37.3105C162.5 37.3105 163.444 38.8849 163.444 41.6388C163.444 43.4701 163.444 45.393 163.336 47.1328C163.336 47.7381 163.746 48.4192 165.135 48.4192H166.205V48.9642H158.613V48.4192H158.916C159.521 48.4951 160.146 48.3433 160.644 48.0261C161.196 46.7241 161.375 45.3326 161.178 43.9703V41.7303C161.178 39.535 160.286 38.4763 158.648 38.4763C157.009 38.6436 155.458 39.1886 154.156 40.0663V46.6657C154.156 48.0884 154.548 48.4368 156.241 48.4368V48.9973H149.328V48.4523C151.234 48.4523 151.894 47.8763 151.894 46.2571V40.9596C151.894 39.1438 150.593 38.4918 149.399 38.4918C147.742 38.6728 146.172 39.2489 144.889 40.1422L144.909 46.6346Z" fill="#1D1D1B"/>
<path id="Path_2269" d="M7.25757 39.4922C7.25757 36.4056 8.54087 33.4085 10.8921 31.0478L8.66462 44.9571C7.73881 43.26 7.25757 41.3839 7.25757 39.4922ZM16.0619 37.2211L21.2845 51.6441L24.8135 51.6889L30.1071 36.6897L31.3904 50.311C26.3993 53.2166 19.8591 53.3685 14.6915 50.7041L16.0619 37.2211ZM22.6915 26.4003C24.2246 26.4003 25.7394 26.5969 27.2014 26.9764L23.1384 38.6748L18.915 26.7935C20.1433 26.5366 21.4082 26.4003 22.6915 26.4003ZM38.1071 39.4922C38.1071 41.3547 37.6442 43.1861 36.7345 44.8812L34.9172 31.5324C37.0026 33.8152 38.1255 36.6158 38.1071 39.4922ZM22.6915 56.0347C33.4368 56.0347 42.1518 48.6178 42.1518 39.4922C42.1518 30.3666 33.4185 22.9653 22.6732 22.9653C11.9279 22.9653 3.21289 30.3666 3.21289 39.4922C3.21289 48.6334 11.9462 56.0191 22.6915 56.0347Z" fill="#1D1D1B"/>
</g>
</svg>
